<svg width="126" height="61" viewBox="0 0 126 61" fill="none" xmlns="http://www.w3.org/2000/svg">
<g clip-path="url(#clip0_5799_18131)">
<path d="M5.13868 53.9626L4.98865 44.8818V44.7456C4.98865 43.9435 5.10868 43.4365 5.35623 43.217C5.47626 43.1035 5.6338 43.0505 5.82135 43.0505C6.8791 43.0505 7.69679 43.3986 8.28943 44.0797C8.88207 44.7683 9.18215 45.6461 9.18215 46.7207C9.18215 47.3942 9.0096 48.0979 8.64952 48.832C8.29693 49.5584 7.87684 50.1033 7.38172 50.4589C8.28193 51.0719 8.93459 51.8437 9.31718 52.7897C9.69977 53.7356 9.89481 54.7193 9.89481 55.756C9.89481 56.3009 9.75978 56.8609 9.48972 57.436C9.21965 58.0111 8.94959 58.4651 8.67953 58.8057C8.40946 59.1537 8.05688 59.4337 7.61427 59.6683C7.17167 59.9029 6.69155 60.024 6.15893 60.024H6.0689C5.37874 60.024 5.03366 59.8348 5.03366 59.464L5.13868 53.9626ZM6.50401 44.3218C6.29396 44.3218 6.19644 44.5867 6.19644 45.124C6.19644 45.6613 6.21144 46.5012 6.24145 47.6439C6.27145 48.7941 6.28646 49.619 6.28646 50.1411C6.66905 50.0503 6.99162 49.7325 7.26919 49.18C7.49424 48.7184 7.67429 48.2644 7.81682 47.8331C7.96686 47.4017 8.05688 47.1369 8.10189 47.0309V46.2364C8.10189 45.7975 7.94435 45.3661 7.62177 44.9499C7.2992 44.5337 6.93161 44.3218 6.51151 44.3218M8.12439 57.8295C8.54449 57.2619 8.75454 56.6111 8.75454 55.862C8.75454 55.1128 8.69453 54.4696 8.5745 53.902C8.44697 53.3345 8.31944 52.9107 8.1694 52.6232C8.01937 52.3356 7.85433 52.0859 7.65178 51.8816C7.41172 51.6394 7.21668 51.4881 7.06664 51.4351H6.27145C6.34647 53.4934 6.38398 55.9679 6.38398 58.8435C7.12666 58.73 7.70429 58.3895 8.12439 57.8219" fill="white"></path>
<path d="M14.2609 58.6392C14.2609 59.6381 14.0133 60.1375 13.5332 60.1375C13.2707 60.1375 13.0606 59.9786 12.9181 59.6457C13.0831 59.3203 13.1656 58.0565 13.1656 55.8544C13.1656 55.4534 13.1206 54.8858 13.0456 54.1518C12.9631 53.4178 12.9181 52.8956 12.9031 52.5778V51.9951C12.8731 51.9346 12.6405 51.3443 12.2129 50.2319C11.2302 47.7347 10.7426 46.244 10.7426 45.7672V45.6461L11.2377 45.2753C11.6953 45.2753 12.2279 46.4331 12.8656 48.7336C13.1356 49.7401 13.2782 50.2471 13.2782 50.2546C13.3307 50.0882 13.4507 49.5282 13.6232 48.5898C14.0658 46.1683 14.531 44.9651 15.0111 44.9651C15.1461 44.9651 15.2736 45.0105 15.3862 45.1013C15.4987 45.1845 15.5512 45.298 15.5512 45.4418C15.5512 46.1834 15.3411 47.2655 14.921 48.6731C14.5009 50.0957 14.2834 51.1703 14.2684 51.9119V58.6468L14.2609 58.6392Z" fill="white"></path>
<path d="M20.3973 48.9303L20.2023 50.4891V51.0264C20.2023 52.7593 20.2398 53.902 20.3148 54.462C20.3898 55.022 20.4723 55.5214 20.5474 55.9679C20.6224 56.4143 20.7349 56.7927 20.8474 57.103C20.975 57.4208 21.125 57.7084 21.305 57.9883C21.6501 58.5408 22.1302 58.8207 22.7454 58.8207C23.0004 58.8207 23.3155 58.6845 23.6906 58.4197C24.0732 58.1548 24.3508 58.0186 24.5458 58.0186C24.7409 58.0186 24.9509 58.1321 25.176 58.3591C25.176 59.1083 24.7559 59.6456 23.9082 59.9634C23.4881 60.1148 23.0379 60.198 22.5428 60.198C22.0477 60.198 21.6351 60.0996 21.2825 59.8953C20.9374 59.691 20.6524 59.4337 20.4198 59.1159C20.1948 58.8056 19.9922 58.397 19.8122 57.8975C19.6396 57.4057 19.5046 56.9138 19.4071 56.4219C19.3171 55.9225 19.2495 55.3625 19.1895 54.7193C19.0995 53.6447 19.0545 52.4642 19.047 51.1778L19.0695 48.4989C19.0695 47.6514 19.122 46.9628 19.227 46.4331C19.1895 46.1985 19.1595 45.9639 19.1595 45.7369C19.1595 44.8137 19.4971 44.0872 20.1798 43.5424C20.8549 43.0051 21.6951 42.7251 22.6929 42.7251C23.0454 42.7251 23.3905 42.8235 23.7281 43.0278C24.0657 43.2245 24.2382 43.497 24.2382 43.8224C24.2382 43.9813 24.1782 44.1099 24.0507 44.1932C23.9232 44.2764 23.7206 44.3218 23.428 44.3218C23.1355 44.3218 22.9329 44.231 22.8279 44.0569L22.5203 44.0645V44.0115C21.6576 44.0115 21.0725 44.284 20.7574 44.8137C20.4723 45.3055 20.3373 46.1607 20.3373 47.3714L20.3973 48.9151V48.9303Z" fill="white"></path>
<path d="M31.1249 55.2944L31.365 56.6717C31.365 56.8533 31.4325 57.2998 31.575 58.0035C31.7175 58.7073 31.7851 59.1689 31.7851 59.3883V59.411C31.7851 59.7364 31.6575 59.9483 31.41 60.0467C31.1024 60.0467 30.8623 59.9937 30.6898 59.8954C30.5173 59.7894 30.4347 59.5927 30.4347 59.3051C30.4347 58.6695 30.3222 57.7538 30.1047 56.543L27.9141 56.2176C27.7791 56.7095 27.6741 57.2544 27.5991 57.8446C27.5241 58.4349 27.4565 58.8586 27.3965 59.1311C27.2615 59.6835 27.0214 59.9635 26.6688 59.9635C26.4888 59.9635 26.3313 59.9029 26.1812 59.797C26.0387 59.691 25.9562 59.5473 25.9562 59.3656L26.0162 59.1689C27.0139 55.2869 27.7491 51.5108 28.2367 47.8331C28.2517 47.7347 28.2742 47.4396 28.3042 46.9401C28.3718 45.8429 28.5143 45.1543 28.7168 44.8516H29.4595C29.6621 44.8516 29.8346 44.897 29.9921 44.9953C30.1422 45.0937 30.2172 45.2299 30.2172 45.4191C30.2172 46.5542 30.3672 48.2417 30.6673 50.4741C30.9599 52.7064 31.1099 54.3183 31.1099 55.302M29.9546 55.7485C29.9096 55.5366 29.8946 55.1507 29.8946 54.6058C29.8946 54.061 29.8571 53.3875 29.8046 52.5853C29.7446 51.7832 29.6546 50.8449 29.542 49.7779C29.4295 48.7109 29.347 47.939 29.3095 47.4547C28.6343 51.2081 28.2067 53.8491 28.0117 55.3852C28.2592 55.5517 28.9194 55.6728 29.9696 55.7409" fill="white"></path>
<path d="M41.1623 59.6078V56.7474C41.1698 56.0815 41.1173 55.1129 41.0047 53.834C40.8997 52.5551 40.8397 51.6924 40.8397 51.246C40.8397 50.7995 40.8622 50.2698 40.8847 49.6568C40.9072 49.0363 40.9297 48.5823 40.9297 48.272C40.8622 48.4688 40.6146 49.4979 40.187 51.3595C39.0618 56.1798 38.2516 58.5938 37.7715 58.5938C37.4789 58.5938 37.2538 58.503 37.0963 58.329C36.9313 58.1549 36.8563 57.9203 36.8563 57.6328C36.8563 56.9214 36.5787 55.4685 36.0236 53.2664C35.4684 51.0719 35.0033 49.3768 34.6207 48.2039C34.3432 53.4632 34.2006 57.0122 34.2006 58.8587L34.2381 59.5246C34.2381 59.7592 34.1781 59.9484 34.0881 60.077C33.9831 60.2056 33.8255 60.2662 33.608 60.2662C33.3904 60.2662 33.2179 60.2132 33.0754 60.1148C32.9403 60.0089 32.8728 59.8803 32.8728 59.7365C32.8728 58.2154 32.9853 55.9377 33.2104 52.9032C33.4354 49.8612 33.5555 47.5834 33.5555 46.0699C33.4654 45.9337 33.4204 45.7748 33.4204 45.6083C33.4204 45.4418 33.5105 45.3056 33.6905 45.2224C33.8705 45.1316 34.0656 45.0938 34.2756 45.0938C34.5907 45.0938 35.2209 46.5921 36.1586 49.5887C37.0888 52.5778 37.6739 54.6588 37.8915 55.809C37.9515 55.5896 38.0865 55.0372 38.2966 54.1518C38.4991 53.2664 38.7167 52.3508 38.9492 51.3973C39.1818 50.4363 39.4369 49.4677 39.7144 48.4915C40.3296 46.2515 40.8547 45.1316 41.2898 45.1316C41.4849 45.1316 41.6649 45.1846 41.8374 45.2981C42.01 45.4116 42.1 45.5554 42.1 45.7445C42.1 46.8267 42.145 48.4309 42.235 50.5725C42.3251 52.714 42.3776 54.2729 42.3776 55.2339L42.3176 57.5874V57.6025C42.3176 57.769 42.3626 58.2987 42.4451 59.1992L42.4901 59.6305C42.5576 59.797 42.5876 59.9635 42.5876 60.1375C42.5876 60.3192 42.5201 60.5083 42.3851 60.7127C42.25 60.917 42.07 61.0153 41.8449 61.0153C41.3873 61.0153 41.1548 60.5537 41.1548 59.623" fill="white"></path>
<path d="M46.301 52.3962L46.406 57.1484V58.4349H46.6835L47.3212 58.4122C47.9213 58.4122 48.2214 58.5938 48.2214 58.9646C48.2214 59.1613 48.1539 59.3127 48.0114 59.4489C47.8613 59.5851 47.6888 59.6532 47.4937 59.6532H46.526C45.8508 59.6532 45.4232 59.6381 45.2357 59.6078C45.1232 59.6229 45.0256 59.6305 44.9581 59.6305C44.433 59.6305 44.1704 59.464 44.1704 59.1235C44.1704 58.9797 44.2155 58.8587 44.298 58.73C44.3805 58.6089 44.4705 58.5408 44.5605 58.5333H45.1907L45.2357 58.2381L45.0857 53.4859L45.2057 48.5066C45.2057 47.6515 45.1682 46.8569 45.0932 46.1002H44.6656L44.1629 46.1229C43.9454 46.1229 43.7728 46.0775 43.6528 45.9942C43.5328 45.911 43.4728 45.7521 43.4728 45.5175C43.4728 45.177 43.8329 45.0029 44.5605 45.0029H47.2012C47.8013 45.0029 48.1014 45.1618 48.1014 45.4721C48.1014 45.6083 48.0339 45.737 47.9063 45.8505C47.7713 45.964 47.6288 46.0245 47.4637 46.0245H46.331C46.3835 46.6375 46.4135 47.3261 46.4135 48.1055L46.301 52.3735V52.3962Z" fill="white"></path>
<path d="M50.667 47.3034L50.7271 52.6762C50.6445 52.8805 50.5995 53.1378 50.5995 53.4405V53.8869L50.517 57.4436C50.517 58.4727 50.7646 58.9873 51.2597 58.9873L52.1824 58.9495C52.9776 58.9495 53.3677 59.1689 53.3677 59.6003C53.3677 59.7592 53.3002 59.8954 53.1651 60.0013C53.0301 60.1073 52.8726 60.1678 52.7 60.1905C52.1599 60.024 51.4997 59.9332 50.712 59.9332C50.4795 60.077 50.2469 60.1375 50.0219 60.1375C49.7968 60.1375 49.6393 60.0619 49.5118 59.9105C49.3842 59.7516 49.3242 59.5927 49.3242 59.4035C49.3242 58.2987 49.3692 56.6339 49.4668 54.4091C49.5568 52.1843 49.6093 50.5195 49.6093 49.4071V49.2482C49.5193 48.3174 49.4743 47.6137 49.4743 47.152C49.4743 45.737 49.7293 45.0332 50.2394 45.0332C50.3895 45.0332 50.5245 45.0937 50.637 45.1997C50.7496 45.3132 50.8021 45.4418 50.8021 45.5932L50.652 47.2958L50.667 47.3034Z" fill="white"></path>
<path d="M59.2715 55.2944L59.5116 56.6717C59.5116 56.8533 59.5791 57.2998 59.7216 58.0035C59.8642 58.7073 59.9317 59.1689 59.9317 59.3883V59.411C59.9317 59.7364 59.8117 59.9483 59.5641 60.0467C59.249 60.0467 59.009 59.9937 58.8364 59.8954C58.6564 59.7894 58.5739 59.5927 58.5739 59.3051C58.5739 58.6695 58.4688 57.7538 58.2513 56.543L56.0608 56.2176C55.9257 56.7095 55.8207 57.2544 55.7457 57.8446C55.6707 58.4349 55.5956 58.8586 55.5356 59.1311C55.4006 59.6835 55.168 59.9635 54.8155 59.9635C54.6354 59.9635 54.4779 59.9029 54.3354 59.797C54.1928 59.691 54.1178 59.5473 54.1178 59.3656L54.1703 59.1689C55.1605 55.2869 55.9032 51.5108 56.3908 47.8331C56.3983 47.7347 56.4283 47.4396 56.4584 46.9401C56.5334 45.8429 56.6684 45.1543 56.871 44.8516H57.6211C57.8237 44.8516 57.9962 44.897 58.1538 44.9953C58.3038 45.0937 58.3788 45.2299 58.3788 45.4191C58.3788 46.5542 58.5288 48.2417 58.8289 50.4741C59.129 52.7064 59.279 54.3183 59.279 55.302M58.1238 55.7485C58.0787 55.5366 58.0637 55.1507 58.0637 54.6058C58.0637 54.061 58.0262 53.3875 57.9737 52.5853C57.9062 51.7832 57.8162 50.8449 57.7037 49.7779C57.5836 48.7109 57.5086 47.939 57.4711 47.4547C56.7959 51.2081 56.3683 53.8491 56.1733 55.3852C56.4208 55.5517 57.081 55.6728 58.1313 55.7409" fill="white"></path>
<path d="M69.2039 53.0847L69.0089 55.9149V56.0132C68.9189 56.4294 68.8738 56.8759 68.8738 57.3527C68.8738 57.8294 68.7913 58.2986 68.6188 58.745C68.4537 59.1915 68.1987 59.585 67.8686 59.9331C67.5235 60.2812 67.1559 60.4477 66.7508 60.4477C66.3457 60.4477 65.9782 60.3115 65.6481 60.0315C65.318 59.7591 65.0404 59.3958 64.8229 58.9645C64.6128 58.5332 64.4178 58.011 64.2527 57.4132C64.0877 56.8154 63.9602 56.2327 63.8701 55.6576C63.7801 55.09 63.7051 54.4847 63.6451 53.849C63.5551 52.8804 63.5251 52.1312 63.5251 51.5939C63.5251 51.0567 63.5251 50.6026 63.5251 50.2167C63.5251 49.8308 63.5101 49.4902 63.5026 49.18V48.0751C63.5026 47.6438 63.5251 47.2579 63.5476 46.9173C63.5626 46.5768 63.5926 46.1985 63.6451 45.805C63.6901 45.4115 63.7426 45.0634 63.8176 44.7607C63.8927 44.458 63.9902 44.1629 64.1102 43.8677C64.2452 43.565 64.3878 43.3304 64.5453 43.1337C64.9054 42.7099 65.3255 42.498 65.7906 42.498C66.2557 42.498 66.6608 42.5889 66.9909 42.7553C67.321 42.9294 67.5985 43.2018 67.8311 43.5802C68.0561 43.9585 68.2512 44.3293 68.4237 44.685C68.5888 45.0407 68.7313 45.5401 68.8288 46.1758C68.9264 46.8114 69.0014 47.326 69.0614 47.7195C69.1214 48.1206 69.1589 48.6881 69.1814 49.4297C69.2114 50.4286 69.2264 51.208 69.2264 51.7604V53.0469L69.2039 53.0847ZM67.246 44.9044C67.0959 44.5261 66.9084 44.231 66.6908 44.0191C66.4658 43.8072 66.2482 43.7088 66.0382 43.7088C65.8281 43.7088 65.6406 43.7845 65.498 43.9358C65.3555 44.0872 65.2355 44.3066 65.1455 44.5866C65.0479 44.8666 64.9579 45.1693 64.8829 45.4871C64.8079 45.805 64.7479 46.1758 64.7178 46.592C64.6728 47.0082 64.6428 47.3941 64.6128 47.7346C64.5903 48.0676 64.5678 48.4384 64.5603 48.847C64.5453 49.5205 64.5303 50.0502 64.5303 50.4361V50.5345C64.5303 51.5334 64.5978 52.608 64.7554 53.7582C64.9129 54.9084 65.0704 55.8543 65.228 56.5959C65.393 57.33 65.6106 57.958 65.8806 58.4651C66.1507 58.9796 66.4583 59.2369 66.8034 59.2369C67.0959 59.2369 67.3435 58.9569 67.546 58.3969C67.7486 57.8294 67.8911 57.1332 67.9736 56.3008C68.1162 54.8176 68.1912 53.7733 68.1987 53.1755C68.1987 52.5777 68.1987 52.1388 68.1987 51.8588C68.1987 51.5864 68.1912 51.1853 68.1687 50.6556C68.1462 50.1259 68.1162 49.634 68.0711 49.1724C68.0261 48.7108 67.9736 48.1962 67.8986 47.6362C67.8311 47.0687 67.7411 46.5768 67.6285 46.1379C67.516 45.699 67.3885 45.2904 67.246 44.912" fill="white"></path>
<path d="M71.7396 52.3432L71.7171 54.7647C71.7171 56.7398 71.8596 58.2911 72.1372 59.4262L71.8821 60.0316H71.267L70.9744 59.6986C70.9894 59.0327 70.9969 58.276 70.9969 57.4436C70.9969 56.6112 70.9294 54.8328 70.8094 52.101C70.6818 49.3693 70.6218 47.3336 70.6218 45.9867C70.6218 45.2753 70.8619 44.9272 71.357 44.9272C72.1297 44.9272 72.7748 45.1316 73.3 45.5402C73.8326 45.9488 74.0952 46.5315 74.0952 47.2882V48.8547C74.0952 49.286 74.0201 49.6795 73.8551 50.0276C73.6976 50.3757 73.51 50.7541 73.3 51.14C73.0899 51.5335 72.9774 51.7454 72.9549 51.7908C73.0299 52.154 73.1724 52.8653 73.375 53.9323C73.8101 56.2555 74.2902 57.9279 74.8153 58.9419C74.9654 59.237 75.0404 59.4565 75.0404 59.6229C75.0404 59.7894 75.0029 59.9256 74.9128 60.0391C74.8228 60.1526 74.7028 60.2056 74.5453 60.2056C74.2377 60.2056 73.9451 59.85 73.6525 59.1311C73.3675 58.4122 73.1349 57.6252 72.9699 56.7474C72.4448 54.0761 72.1222 52.6081 72.0022 52.3356H71.7321L71.7396 52.3432ZM71.8296 45.7597L71.7546 46.0775C71.7546 46.6829 71.7696 47.5682 71.7921 48.726C71.8296 49.8763 71.8371 50.7162 71.8371 51.2384C72.1822 51.0568 72.4673 50.58 72.6773 49.8157C72.8874 49.0439 72.9924 48.4536 72.9924 48.045C72.9924 47.6363 72.9774 47.3412 72.9624 47.1445C72.9399 46.9477 72.8949 46.7358 72.8198 46.5088C72.6773 46.0245 72.3397 45.7748 71.8296 45.7521" fill="white"></path>
<path d="M77.1933 52.3432L77.1783 54.7647C77.1783 56.7398 77.3209 58.2911 77.5984 59.4262L77.3434 60.0316H76.7282L76.4356 59.6986C76.4431 59.0327 76.4581 58.276 76.4581 57.4436C76.4581 56.6112 76.3981 54.8328 76.2631 52.101C76.1431 49.3693 76.0756 47.3336 76.0756 45.9867C76.0756 45.2753 76.3231 44.9272 76.8107 44.9272C77.5834 44.9272 78.2286 45.1316 78.7537 45.5402C79.2788 45.9488 79.5489 46.5315 79.5489 47.2882V48.8547C79.5489 49.286 79.4739 49.6795 79.3088 50.0276C79.1513 50.3757 78.9637 50.7541 78.7537 51.14C78.5436 51.5335 78.4311 51.7454 78.4086 51.7908C78.4911 52.154 78.6262 52.8653 78.8287 53.9323C79.2638 56.2555 79.7439 57.9279 80.2691 58.9419C80.4191 59.237 80.4941 59.4565 80.4941 59.6229C80.4941 59.7894 80.4566 59.9256 80.3591 60.0391C80.2691 60.1526 80.149 60.2056 79.9915 60.2056C79.6839 60.2056 79.3913 59.85 79.0988 59.1311C78.8137 58.4122 78.5812 57.6252 78.4161 56.7474C77.891 54.0761 77.5684 52.6081 77.4559 52.3356H77.1783L77.1933 52.3432ZM77.2833 45.7597L77.2083 46.0775C77.2083 46.6829 77.2233 47.5682 77.2458 48.726C77.2758 49.8763 77.2908 50.7162 77.2908 51.2384C77.6359 51.0568 77.921 50.58 78.131 49.8157C78.3411 49.0439 78.4461 48.4536 78.4461 48.045C78.4461 47.6363 78.4386 47.3412 78.4161 47.1445C78.3936 46.9477 78.3486 46.7358 78.2736 46.5088C78.1235 46.0245 77.7935 45.7748 77.2758 45.7521" fill="white"></path>
<path d="M81.7844 48.5444L81.6644 46.6526C81.6644 45.6008 81.972 45.071 82.5946 45.071C82.9922 45.071 83.5324 45.1619 84.215 45.351C84.8977 45.5402 85.2428 45.7748 85.2428 46.0624C85.2428 46.3726 85.0252 46.5996 84.5976 46.7661C83.9149 46.5391 83.3523 46.3953 82.9247 46.3424C82.9472 46.6677 82.9547 46.978 82.9547 47.3034L82.8572 50.5119C82.8572 50.5119 82.8797 50.6481 82.9247 50.86L83.7124 50.8298C84.4251 50.8298 84.7851 51.0341 84.7851 51.4427C84.7851 51.6016 84.7176 51.7454 84.5901 51.8665C84.4551 51.9876 84.2975 52.0481 84.095 52.0481C83.8924 52.0481 83.6749 52.033 83.4498 52.0027H82.8872C82.9247 52.5702 82.9472 53.1378 82.9472 53.6978L82.8497 57.7463C82.8497 58.5862 82.8647 59.0024 82.8947 59.0024L84.5301 58.9495C85.0927 58.9495 85.3778 59.1311 85.3778 59.4943C85.3778 59.7213 85.2803 59.8802 85.0852 59.9862C84.8902 60.0846 84.6726 60.1375 84.4251 60.1375H82.5571C82.3621 60.1375 82.182 60.0694 82.0245 59.9332C81.867 59.797 81.7844 59.6305 81.7769 59.4413V58.8511L81.6344 55.075L81.7844 48.5444Z" fill="white"></path>
<path d="M91.8743 55.3474L91.9868 57.716C91.9868 58.45 91.7318 59.0176 91.2291 59.4111C90.719 59.8121 90.1189 60.0013 89.4437 60.0013C88.4235 60.0013 87.6808 59.623 87.2157 58.8435C86.8856 58.2987 86.6756 57.7841 86.5855 57.2998C86.503 56.8155 86.443 56.4447 86.4055 56.1874C86.368 55.9225 86.338 55.5669 86.3305 55.128C86.3005 54.5075 86.293 54.008 86.293 53.6297V52.6686C86.293 50.5649 86.353 49.2331 86.4805 48.6806C86.6005 48.1207 86.7356 47.5985 86.9006 47.1218C87.0581 46.645 87.2532 46.2667 87.4783 46.0094C88.0334 45.3737 88.6785 45.0483 89.4062 45.0483C90.1339 45.0483 90.5015 45.2375 90.5015 45.6159C90.5015 45.7899 90.4265 45.9337 90.2764 46.0472C90.1339 46.1607 89.9688 46.2137 89.7888 46.2137L89.3237 46.1607C88.8136 46.1607 88.4235 46.6677 88.1684 47.6969C87.7933 49.1498 87.6058 50.9054 87.6058 52.9637C87.6058 54.3713 87.6508 55.3323 87.7408 55.862C87.8308 56.3917 87.9284 56.8306 88.0409 57.1939C88.1384 57.5571 88.2659 57.8522 88.4085 58.0641C88.7536 58.5787 89.1812 58.8435 89.7138 58.8435C90.434 58.8435 90.7865 57.6555 90.7865 55.2869V54.2577C90.674 54.1972 90.5015 54.1669 90.2614 54.1669L89.8263 54.1821C89.3162 54.1821 89.0536 54.008 89.0536 53.6675C89.0536 53.4556 89.1361 53.2967 89.2862 53.1908C89.4287 53.0848 89.6088 53.0243 89.8188 53.0243L90.1189 53.0318C91.4467 53.0318 92.1069 53.2589 92.1069 53.7205L91.8743 55.3474Z" fill="white"></path>
<path d="M93.2321 53.0015L93.2546 52.154C93.2546 52.0859 93.2396 52.0481 93.2246 52.0481V51.6394C93.2246 49.2936 93.3596 47.6288 93.6297 46.6374C93.8548 45.7975 94.0648 45.2829 94.2824 45.0861C94.4924 44.8894 94.695 44.791 94.8975 44.791C96.6154 44.791 97.8007 45.6613 98.4534 47.4093C98.8285 48.4082 99.016 49.6492 99.016 51.1173V51.2762L99.061 53.8112C99.061 58.0943 98.0708 60.2434 96.1053 60.2434C95.2951 60.2434 94.665 59.7894 94.2299 58.8813C93.8248 58.0035 93.5772 57.1484 93.4797 56.3009C93.3221 55.0296 93.2471 53.9247 93.2471 52.994M94.5524 49.9368L94.4399 52.0027C94.4399 54.1669 94.6124 56.0512 94.965 57.663C95.3326 58.6013 95.6852 59.1538 96.0153 59.3202C96.2853 59.3202 96.5254 59.2067 96.743 58.9873C96.9605 58.7678 97.133 58.4803 97.2606 58.1095C97.3881 57.7387 97.4856 57.3527 97.5832 56.9441C97.6582 56.543 97.7257 56.1117 97.7707 55.6577C97.8457 54.8631 97.8757 54.1896 97.8757 53.6221C97.8757 53.0545 97.8232 52.207 97.7257 51.0416C97.6282 49.8838 97.5832 49.0211 97.5832 48.4536V48.0601C97.5681 47.5152 97.3956 47.0309 97.0505 46.6072C96.7129 46.1834 96.2778 45.9715 95.7527 45.9715C95.2276 45.9715 94.9125 46.2591 94.7475 46.8342C94.6124 47.3109 94.5449 47.9087 94.5449 48.6125L94.5599 49.9368H94.5524Z" fill="white"></path>
<path d="M35.6185 37.0117L35.9486 11.4796C35.9336 9.45157 38.0116 10.1175 39.9845 9.86777C40.5622 9.86777 40.5772 8.36945 40.067 8.02892C39.5719 7.7792 38.3866 7.94568 37.2164 7.72623C36.4887 7.56731 36.2711 6.94679 36.2486 6.22033V2.92099C36.2486 2.64857 36.4062 2.37614 36.7288 2.35344C36.7288 2.35344 39.3019 2.35344 40.7047 2.25507C41.4474 2.11129 41.4249 0.0908203 40.5247 0.0908203H34.4482C33.7881 0.0908203 33.2479 0.635666 33.2479 1.30916V38.843C33.2479 39.5165 33.7806 40.0613 34.4482 40.0613H40.3521C41.0273 40.0613 41.0573 39.1835 41.0273 38.4949C40.8847 37.4203 35.6185 38.8657 35.6185 37.0192V37.0117Z" fill="white"></path>
<path d="M46.3985 39.8571C45.8134 39.7436 45.5808 39.1988 45.5808 38.6085C45.7234 25.0782 45.7534 12.4105 45.5508 1.52874C45.5508 0.953624 45.5133 0.408779 46.0759 0.272567C46.7436 0.113654 47.1562 0.514721 47.3137 1.16551C49.3467 7.68095 52.3174 18.8957 54.808 30.5115C55.1831 32.6303 54.553 13.7802 54.9806 1.27145C54.9806 0.681202 55.3031 0.136356 55.8808 0.0228466C56.661 -0.128499 57.021 0.469317 57.021 1.22605C56.961 3.10274 57.6662 33.0768 56.811 39.3955C56.631 39.7739 56.2108 39.9631 55.9183 39.9403C55.6407 39.9101 55.2956 39.8722 55.0406 39.2971C53.6677 35.68 50.0969 21.8394 48.364 15.0364C48.1089 14.0299 47.9589 14.484 47.9589 15.5207L47.8539 38.6615C47.8539 39.4182 47.1712 40.016 46.3835 39.8647L46.3985 39.8571Z" fill="white"></path>
<path d="M27.9891 39.9403C27.9291 39.9403 27.869 39.9403 27.8165 39.9252C27.1714 39.8268 26.7063 39.2138 26.8263 38.563C28.4692 27.4997 23.5105 13.6969 20.6223 12.2894C20.6223 12.2894 20.6898 28.6045 19.6771 38.7371C19.6771 39.3954 19.152 39.9327 18.4993 39.9327C17.8467 39.9327 17.3215 39.3954 17.3215 38.7371C18.4168 27.3029 18.4093 14.7034 17.4566 1.3395C17.4566 0.681147 17.8467 0.143869 18.4993 0.143869C18.4993 0.143869 21.8526 -0.0226115 23.0604 0.166571C25.7235 0.597907 26.8488 2.19461 26.8488 5.30477C26.8488 9.76191 23.458 11.0408 22.8804 11.3435C25.3484 14.2493 31.5599 24.1473 29.1669 38.9187C28.9943 39.4938 28.5742 39.9403 28.0041 39.9403H27.9891ZM20.3072 3.15565L20.4798 9.6938C23.2104 9.60299 24.5833 7.15119 24.5307 5.13829C24.4857 3.36754 23.5855 2.36109 22.3027 2.30812C22.3027 2.30812 20.0972 1.99786 20.2997 3.15565H20.3072Z" fill="white"></path>
<path d="M60.8844 38.8052V1.27899C60.8844 0.620639 61.4095 0.0833604 62.0547 0.0833604H62.7223C62.7223 0.0833604 62.7598 0.0833604 62.7824 0.0833604C69.2489 -0.0982547 73.5849 5.54695 74.8377 13.5229C75.8055 18.4114 74.8902 35.2032 64.0802 39.736C63.39 39.8949 60.8844 40.4019 60.8844 38.8052ZM63.8176 2.52003C64.3052 10.95 63.8326 23.9204 63.54 37.2539C70.8168 33.1979 73.5324 22.3842 72.2046 13.9012C71.1693 7.26473 68.4237 3.05731 63.8176 2.52003Z" fill="white"></path>
<path d="M87.9134 0.196902C87.3358 -0.0679533 86.6531 0.196902 86.3906 0.779584C85.0478 4.71458 83.7349 8.36958 82.5872 10.8063L78.1311 1.01417C77.8685 0.439056 77.2159 0.128796 76.6307 0.355815C76.0156 0.605536 75.7305 1.31686 76.0081 1.92225C77.486 5.774 78.9788 9.36847 80.5392 12.3878C80.9068 13.0991 81.0868 13.8861 81.0793 14.6883C80.9668 23.9734 80.9443 32.4714 81.2218 38.3815C81.2218 39.0171 81.8295 39.9328 82.4596 39.9328C82.4596 39.9328 83.5849 40.0085 83.6149 38.4496L83.78 16.0882C83.795 14.5521 84.1175 13.031 84.7177 11.6235C85.9255 8.78579 87.1933 5.39564 88.4911 1.73306C88.7536 1.15038 88.4911 0.461758 87.9134 0.196902Z" fill="white"></path>
<path d="M13.0158 0.000488281L1.10295 0.166969C0.495304 0.166969 -0.0598279 0.673978 0.000186424 1.28693C0.150222 2.63391 3.54853 2.21771 5.88159 2.40689C5.529 15.8086 5.16892 37.2619 5.25144 37.9202C5.25144 39.5245 5.83658 39.9558 6.75179 39.9558C8.07211 39.9558 7.93708 38.9494 8.0346 37.7235C8.16963 35.9906 8.33467 8.17317 8.56723 2.40689C8.56723 2.40689 13.2858 2.40689 13.7285 1.68043C14.111 0.923699 13.6234 0.000488281 13.0158 0.000488281Z" fill="white"></path>
<path d="M125.992 17.632C125.992 8.92199 117.283 2.39141 108.573 2.36871C99.8337 2.34601 91.0717 8.89172 91.0717 17.632C91.0717 23.1334 92.602 26.4857 95.8503 29.6564C96.1804 29.9818 96.3079 30.4585 96.1804 30.905C95.4752 33.3492 93.3072 35.3697 91.2217 37.0042C90.9441 37.2237 91.1017 37.6777 91.4542 37.6702C96.1729 37.5642 100.501 37.201 104.372 36.5502V25.4944C104.372 24.9117 104.567 24.4955 104.965 24.276C108.296 26.1906 111.191 24.9798 112.122 24.276C112.527 24.4955 112.714 24.9117 112.714 25.4944V34.4541C121.371 31.359 126.203 25.9257 126 17.6395L125.992 17.632ZM109.248 5.8194C108.656 7.35556 107.358 8.54363 106.135 8.6647C106.435 7.07557 107.673 5.96318 109.248 5.8194ZM106.06 9.43657C106.06 9.33819 106.06 9.24739 106.075 9.14901C107.478 9.05064 108.978 7.75663 109.669 6.06155C110.389 6.99233 111.004 8.24094 111.004 9.43657V16.7996C111.004 17.1855 110.756 17.526 110.396 17.6395C109.173 18.0103 107.943 18.0028 106.69 17.6395C106.315 17.5336 106.068 17.1779 106.068 16.7844V9.43657H106.06ZM111.852 23.1409C111.852 23.5269 111.627 23.875 111.274 24.0415C109.504 24.8512 107.726 24.8058 105.94 24.0263C105.588 23.875 105.363 23.5193 105.363 23.1258V17.9952C105.363 17.8363 105.528 17.7303 105.67 17.806C106.263 18.1087 107.343 18.5854 108.746 18.5627C110.006 18.54 110.974 18.1011 111.537 17.806C111.679 17.7303 111.844 17.8363 111.844 17.9952V23.1409H111.852Z" fill="white"></path>
</g>
<defs>
<clipPath id="clip0_5799_18131">
<rect width="126" height="61" fill="white"></rect>
</clipPath>
</defs>
</svg>
