<svg width="110" height="83" viewBox="0 0 110 83" fill="none" xmlns="http://www.w3.org/2000/svg">
<path d="M18.6264 27.4578C15.7578 27.4578 13.4286 25.1227 13.4286 22.2466C13.4286 19.3705 15.7578 17.0354 18.6264 17.0354C21.495 17.0354 23.8242 19.3705 23.8242 22.2466C23.8242 25.1227 21.495 27.4578 18.6264 27.4578Z" fill="#D65B34"></path>
<path d="M75.578 64.6025C66.1825 55.097 78.5979 46.8514 84.8484 46.1258C91.1054 45.3342 95.7374 42.3196 96.0795 36.6731C96.3821 31.6993 92.9806 26.5871 87.3354 26.4024C83.9602 26.2903 82.2956 27.0093 79.2032 29.5687C76.7557 31.5938 72.7225 32.2403 69.9131 31.9434C65.3601 31.4553 60.8071 27.2533 60.794 22.7611C60.7874 20.3073 61.9651 18.2426 63.0573 16.7716C64.3403 15.0433 65.3009 13.005 65.4062 10.6764C65.643 5.02986 61.2874 0.254028 55.6686 0.00995909C52.0631 -0.148356 48.8128 1.59311 46.8785 4.35703C44.4046 7.53652 41.7597 10.9073 37.1672 11.6197C32.3116 12.2068 28.4429 16.257 28.2258 21.3231C28.1205 23.6517 28.9693 25.7361 30.0417 27.6161C35.4303 37.0557 27.3507 48.1311 17.3368 49.2921C13.4484 49.9583 10.5074 53.4545 10.3363 57.3992C10.0863 63.0457 14.4419 67.8216 20.0607 68.0656C23.2123 68.2042 26.0612 66.9244 28.0284 64.7476C36.5554 56.2184 57.0503 59.1472 58.5965 72.8283C58.8794 78.0197 63.0573 82.248 68.3472 82.4855C73.9858 82.7362 78.7493 78.3561 78.9993 72.7029C79.1243 69.8071 77.486 66.5221 75.5846 64.6025" fill="#D65B34"></path>
<path d="M102.422 39.0081C100.955 39.0081 99.6061 39.6083 98.6455 40.578C97.6849 41.5411 97.0796 42.8934 97.0796 44.3644V49.259H101.132V47.1151V44.4435C101.132 43.8565 101.271 43.3551 101.508 42.9659C101.744 42.5833 102.054 42.3591 102.415 42.3525C102.777 42.3525 103.087 42.5767 103.323 42.9659C103.56 43.3551 103.698 43.8565 103.698 44.4435V49.2524H107.751V44.3578C107.751 42.8868 107.153 41.5345 106.185 40.5714C105.225 39.6083 103.876 39.0015 102.409 39.0015" fill="white"></path>
<path d="M91.237 46.7789C90.5264 46.7789 89.9474 45.6971 89.9474 44.3646C89.9474 43.0321 90.5264 41.9503 91.237 41.9503C91.9476 41.9503 92.52 43.0321 92.52 44.3646C92.52 45.6971 91.9476 46.7789 91.237 46.7789ZM91.237 39.0083C88.2894 39.0083 85.8945 41.4028 85.8945 44.3646C85.8945 47.3264 88.2828 49.7209 91.237 49.7209C94.1911 49.7209 96.5795 47.3264 96.5795 44.3646C96.5795 41.4028 94.1911 39.0083 91.237 39.0083Z" fill="white"></path>
<path d="M79.065 43.4079C79.1374 43.0979 79.2361 42.8208 79.3348 42.6163C79.519 42.2271 79.8809 41.9105 80.2427 41.9105C80.6112 41.9105 80.9073 42.1678 81.1573 42.6295C81.2691 42.8274 81.3678 43.1704 81.4139 43.4013H79.065V43.4079ZM80.2427 39.0081C78.7755 39.0081 77.4267 39.6083 76.4661 40.578C75.5055 41.5411 74.9002 42.8934 74.9002 44.3644C74.9002 45.8354 75.499 47.1877 76.4661 48.1508C77.4004 49.0875 78.7229 49.7207 80.2691 49.7207C81.8547 49.7207 83.1706 49.0149 84.0522 48.1178C85.1707 46.8315 85.2234 45.4594 85.2234 45.4594H81.6113C81.6113 45.4594 81.1112 46.7259 80.2493 46.7259C79.8875 46.7259 79.5782 46.4621 79.3414 46.0201C79.1769 45.7101 79.065 45.3407 79.0058 44.9251H85.3023C85.3023 44.9251 85.7366 42.3525 84.0128 40.6044C83.0127 39.5885 81.7363 39.0015 80.2493 39.0015" fill="white"></path>
<path d="M69.0446 46.7787C68.334 46.7787 67.755 45.6969 67.755 44.3644C67.755 43.0319 68.334 41.9501 69.0446 41.9501C69.7552 41.9501 70.3341 43.0319 70.3341 44.3644C70.3341 45.6969 69.7552 46.7787 69.0446 46.7787ZM74.3871 44.3644H74.3937V35.8418C74.3937 34.7204 73.4857 33.8101 72.3606 33.8101C71.2421 33.8101 70.3341 34.7204 70.3341 35.8418V39.1664C69.9196 39.0608 69.492 39.0081 69.0446 39.0081C67.5774 39.0081 66.2286 39.6083 65.268 40.578C64.3074 41.5411 63.7021 42.8934 63.7021 44.3644C63.7021 45.8354 64.3008 47.1877 65.268 48.1508C65.8799 48.7708 67.2023 49.7207 69.0446 49.7207C70.8868 49.7207 72.2093 48.7708 72.8212 48.1508C73.7818 47.1877 74.3871 45.8354 74.3871 44.3644Z" fill="white"></path>
<path d="M57.8727 46.7789C57.1621 46.7789 56.5831 45.6971 56.5831 44.3646C56.5831 43.0321 57.1621 41.9503 57.8727 41.9503C58.5833 41.9503 59.1623 43.0321 59.1623 44.3646C59.1623 45.6971 58.5833 46.7789 57.8727 46.7789ZM57.8727 39.0083C54.9251 39.0083 52.5302 41.4028 52.5302 44.3646C52.5302 47.3264 54.9185 49.7209 57.8727 49.7209C60.8269 49.7209 63.2152 47.3264 63.2152 44.3646C63.2152 41.4028 60.8269 39.0083 57.8727 39.0083Z" fill="white"></path>
<path d="M49.9379 33.8167C48.8194 33.8167 47.9114 34.727 47.9114 35.8484V49.259H51.9709V35.8484C51.9709 34.727 51.0564 33.8167 49.9379 33.8167Z" fill="white"></path>
<path d="M41.1017 43.4079C41.1741 43.0979 41.2728 42.8208 41.3715 42.6163C41.5491 42.2271 41.9176 41.9105 42.2794 41.9105C42.6479 41.9105 42.944 42.1678 43.194 42.6295C43.3058 42.8274 43.4045 43.1704 43.4506 43.4013H41.1017V43.4079ZM42.2794 39.0081C40.8122 39.0081 39.4634 39.6083 38.5029 40.578C37.5423 41.5411 36.9369 42.8934 36.9369 44.3644C36.9369 45.8354 37.5357 47.1877 38.5029 48.1508C39.4371 49.0875 40.7596 49.7207 42.3058 49.7207C43.8914 49.7207 45.2073 49.0149 46.0889 48.1178C47.2074 46.8315 47.2601 45.4594 47.2601 45.4594H43.648C43.648 45.4594 43.1479 46.7259 42.286 46.7259C41.9242 46.7259 41.6149 46.4621 41.3781 46.0201C41.2136 45.7101 41.1017 45.3407 41.0425 44.9251H47.339C47.339 44.9251 47.7733 42.3525 46.0495 40.6044C45.0494 39.5885 43.773 39.0015 42.286 39.0015" fill="white"></path>
<path d="M37.5291 48.5466C37.5291 48.4081 37.4896 48.2827 37.4238 48.1772L35.2 44.8064L36.7396 42.0095C37.3054 41.0464 36.9896 39.7997 36.0224 39.2258C35.0552 38.6585 33.8183 38.9751 33.2459 39.9448L31.4102 43.2364V41.0398C31.4102 39.9184 30.5023 39.0081 29.3838 39.0081C28.2652 39.0081 27.3573 39.9184 27.3573 41.0398V49.259H31.4102V46.0399L33.5485 49.2524H36.8251C37.2133 49.2524 37.5291 48.9358 37.5291 48.54" fill="white"></path>
<path d="M22.3109 46.0731C22.074 46.5151 21.7648 46.7789 21.4029 46.7789C21.0411 46.7789 20.7318 46.5151 20.495 46.0731C20.2581 45.6245 20.1199 45.0506 20.1199 44.3712C20.1199 43.6918 20.2581 43.1179 20.495 42.6693C20.7318 42.2274 21.0411 41.9635 21.4029 41.9635C21.7648 41.9635 22.074 42.2274 22.3109 42.6693C22.4885 43.0058 22.607 43.4081 22.6596 43.8699H26.7191C26.6007 42.5968 26.0283 41.4358 25.1795 40.5848C24.2189 39.6218 22.8701 39.0149 21.4029 39.0149C19.9357 39.0149 18.5869 39.6152 17.6263 40.5848C16.6657 41.5479 16.0604 42.9002 16.0604 44.3712C16.0604 45.8422 16.6592 47.1945 17.6263 48.1576C18.3632 48.8964 19.6528 49.7275 21.4029 49.7275C22.7188 49.7275 23.936 49.246 24.8637 48.4478C25.5414 47.8739 26.548 46.713 26.7191 44.8725H22.6596C22.607 45.3343 22.4885 45.7433 22.3109 46.0731Z" fill="white"></path>
<path d="M15.0472 37.689C15.4551 37.28 15.7051 36.7127 15.7051 36.0927C15.7051 35.4726 15.4551 34.9053 15.0472 34.4963C14.6393 34.0873 14.0734 33.8367 13.455 33.8367C12.8365 33.8367 12.2707 34.0873 11.8627 34.4963C11.4548 34.9053 11.2048 35.4726 11.2048 36.0927C11.2048 36.7127 11.4548 37.28 11.8627 37.689L12.3628 38.1903C13.1918 39.0215 13.251 39.2458 12.4615 40.0373L12.0075 40.4925C11.639 40.8619 11.4088 41.3764 11.4088 41.9437V49.2526H15.5077V41.9437C15.5077 41.3764 15.2775 40.8619 14.909 40.4925L14.455 40.0373C13.6655 39.2458 13.7247 39.0215 14.5537 38.1903L15.0538 37.689H15.0472Z" fill="white"></path>
<path d="M5.3425 39.0083C3.87529 39.0083 2.5265 39.6086 1.5659 40.5783C0.605307 41.5413 0 42.8936 0 44.3646V49.2592H4.05293V44.4504C4.05293 43.8633 4.1911 43.362 4.42796 42.9728C4.66482 42.5902 4.97405 42.3659 5.33592 42.3593C5.69779 42.3593 6.00702 42.5836 6.24388 42.9728C6.48074 43.362 6.61891 43.8633 6.61891 44.4504V49.2592H10.6718V44.3646C10.6718 42.8936 10.0731 41.5413 9.10594 40.5783C8.14534 39.6152 6.79656 39.0083 5.32934 39.0083" fill="white"></path>
<path d="M108.87 48.5068H108.89L109.179 48.8301L109.469 48.5068H109.488V49.1203H109.383V48.7443L109.199 48.9686H109.179L108.988 48.7443V49.1203H108.876V48.5068H108.87ZM108.455 48.6124H108.271V48.52H108.745V48.6124H108.561V49.1203H108.455V48.6124Z" fill="white"></path>
</svg>
