<svg width="234" height="15" viewBox="0 0 234 15" fill="none" xmlns="http://www.w3.org/2000/svg">
<path d="M3.28004 14.6721V6.40012H3.51593e-05V3.47212H10.336V6.40012H7.05604V14.6721H3.28004ZM14.7728 7.63212H19.7648V10.3521H14.7728V7.63212ZM15.0288 11.8241H20.6288V14.6721H11.3168V3.47212H20.4208V6.32012H15.0288V11.8241ZM14.1968 2.56012L16.3088 0.000118256H19.7488L16.5968 2.56012H14.1968ZM22.0824 14.6721V3.47212H27.4744C28.5197 3.47212 29.4211 3.64279 30.1784 3.98412C30.9464 4.32545 31.5384 4.81612 31.9544 5.45612C32.3704 6.08545 32.5784 6.83212 32.5784 7.69612C32.5784 8.56012 32.3704 9.30679 31.9544 9.93612C31.5384 10.5548 30.9464 11.0295 30.1784 11.3601C29.4211 11.6908 28.5197 11.8561 27.4744 11.8561H24.1784L25.8584 10.3041V14.6721H22.0824ZM28.7864 14.6721L26.0344 10.5921H30.0344L32.8184 14.6721H28.7864ZM25.8584 10.7201L24.1784 9.00812H27.2344C27.7571 9.00812 28.1411 8.89079 28.3864 8.65612C28.6424 8.42145 28.7704 8.10145 28.7704 7.69612C28.7704 7.29079 28.6424 6.97079 28.3864 6.73612C28.1411 6.50145 27.7571 6.38412 27.2344 6.38412H24.1784L25.8584 4.67212V10.7201ZM34.0043 14.6721V3.47212H37.1083L41.5883 10.7841H39.9563L44.3083 3.47212H47.4123L47.4443 14.6721H44.0043L43.9723 8.65612H44.5163L41.5403 13.6641H39.8763L36.7723 8.65612H37.4443V14.6721H34.0043ZM49.2699 14.6721V3.47212H53.0459V14.6721H49.2699ZM54.8637 14.6721V3.47212H57.9677L63.6637 10.2881H62.2237V3.47212H65.9037V14.6721H62.7997L57.1037 7.85612H58.5437V14.6721H54.8637ZM73.595 14.9281C72.6884 14.9281 71.8457 14.7841 71.067 14.4961C70.299 14.2081 69.6324 13.8028 69.067 13.2801C68.5017 12.7468 68.059 12.1228 67.739 11.4081C67.4297 10.6935 67.275 9.91479 67.275 9.07212C67.275 8.21879 67.4297 7.44012 67.739 6.73612C68.059 6.02145 68.5017 5.40279 69.067 4.88012C69.6324 4.34678 70.299 3.93612 71.067 3.64812C71.8457 3.36012 72.6884 3.21612 73.595 3.21612C74.5124 3.21612 75.355 3.36012 76.123 3.64812C76.891 3.93612 77.5577 4.34678 78.123 4.88012C78.6884 5.40279 79.1257 6.02145 79.435 6.73612C79.755 7.44012 79.915 8.21879 79.915 9.07212C79.915 9.91479 79.755 10.6935 79.435 11.4081C79.1257 12.1228 78.6884 12.7468 78.123 13.2801C77.5577 13.8028 76.891 14.2081 76.123 14.4961C75.355 14.7841 74.5124 14.9281 73.595 14.9281ZM73.595 11.8721C73.947 11.8721 74.2724 11.8081 74.571 11.6801C74.8804 11.5521 75.147 11.3708 75.371 11.1361C75.6057 10.8908 75.787 10.5975 75.915 10.2561C76.043 9.90412 76.107 9.50945 76.107 9.07212C76.107 8.63479 76.043 8.24545 75.915 7.90412C75.787 7.55212 75.6057 7.25879 75.371 7.02412C75.147 6.77879 74.8804 6.59212 74.571 6.46412C74.2724 6.33612 73.947 6.27212 73.595 6.27212C73.243 6.27212 72.9124 6.33612 72.603 6.46412C72.3044 6.59212 72.0377 6.77879 71.803 7.02412C71.579 7.25879 71.403 7.55212 71.275 7.90412C71.147 8.24545 71.083 8.63479 71.083 9.07212C71.083 9.50945 71.147 9.90412 71.275 10.2561C71.403 10.5975 71.579 10.8908 71.803 11.1361C72.0377 11.3708 72.3044 11.5521 72.603 11.6801C72.9124 11.8081 73.243 11.8721 73.595 11.8721ZM85.4615 14.9281C84.5229 14.9281 83.6162 14.8215 82.7415 14.6081C81.8669 14.3948 81.1469 14.1175 80.5815 13.7761L81.7975 11.0241C82.3309 11.3335 82.9229 11.5841 83.5735 11.7761C84.2349 11.9575 84.8749 12.0481 85.4935 12.0481C85.8562 12.0481 86.1389 12.0268 86.3415 11.9841C86.5549 11.9308 86.7095 11.8615 86.8055 11.7761C86.9015 11.6801 86.9495 11.5681 86.9495 11.4401C86.9495 11.2375 86.8375 11.0775 86.6135 10.9601C86.3895 10.8428 86.0909 10.7468 85.7175 10.6721C85.3549 10.5868 84.9549 10.5015 84.5175 10.4161C84.0802 10.3201 83.6375 10.1975 83.1895 10.0481C82.7522 9.89879 82.3469 9.70145 81.9735 9.45612C81.6109 9.21079 81.3175 8.89079 81.0935 8.49612C80.8695 8.09079 80.7575 7.58945 80.7575 6.99212C80.7575 6.29879 80.9495 5.66945 81.3335 5.10412C81.7282 4.52812 82.3095 4.06945 83.0775 3.72812C83.8562 3.38679 84.8215 3.21612 85.9735 3.21612C86.7309 3.21612 87.4775 3.29612 88.2135 3.45612C88.9495 3.61612 89.6109 3.86145 90.1975 4.19212L89.0615 6.92812C88.5069 6.65079 87.9682 6.44279 87.4455 6.30412C86.9335 6.16545 86.4322 6.09612 85.9415 6.09612C85.5789 6.09612 85.2909 6.12812 85.0775 6.19212C84.8642 6.25612 84.7095 6.34145 84.6135 6.44812C84.5282 6.55479 84.4855 6.67212 84.4855 6.80012C84.4855 6.99212 84.5975 7.14679 84.8215 7.26412C85.0455 7.37079 85.3389 7.46145 85.7015 7.53612C86.0749 7.61079 86.4802 7.69079 86.9175 7.77612C87.3655 7.86145 87.8082 7.97879 88.2455 8.12812C88.6829 8.27745 89.0829 8.47479 89.4455 8.72012C89.8189 8.96545 90.1175 9.28545 90.3415 9.68012C90.5655 10.0748 90.6775 10.5655 90.6775 11.1521C90.6775 11.8348 90.4802 12.4641 90.0855 13.0401C89.7015 13.6055 89.1255 14.0641 88.3575 14.4161C87.5895 14.7575 86.6242 14.9281 85.4615 14.9281ZM99.478 14.6721V9.76012L100.342 12.0161L95.254 3.47212H99.238L102.678 9.31212H100.358L103.83 3.47212H107.478L102.422 12.0161L103.254 9.76012V14.6721H99.478ZM118.546 14.9281C117.65 14.9281 116.818 14.7895 116.05 14.5121C115.293 14.2241 114.632 13.8188 114.066 13.2961C113.512 12.7735 113.08 12.1548 112.77 11.4401C112.461 10.7255 112.306 9.93612 112.306 9.07212C112.306 8.20812 112.461 7.41879 112.77 6.70412C113.08 5.98945 113.512 5.37079 114.066 4.84812C114.632 4.32545 115.293 3.92545 116.05 3.64812C116.818 3.36012 117.65 3.21612 118.546 3.21612C119.645 3.21612 120.616 3.40812 121.458 3.79212C122.312 4.17612 123.016 4.73079 123.57 5.45612L121.186 7.58412C120.856 7.16812 120.488 6.84812 120.082 6.62412C119.688 6.38945 119.24 6.27212 118.738 6.27212C118.344 6.27212 117.986 6.33612 117.666 6.46412C117.346 6.59212 117.069 6.77879 116.834 7.02412C116.61 7.26945 116.434 7.56812 116.306 7.92012C116.178 8.26145 116.114 8.64545 116.114 9.07212C116.114 9.49879 116.178 9.88812 116.306 10.2401C116.434 10.5815 116.61 10.8748 116.834 11.1201C117.069 11.3655 117.346 11.5521 117.666 11.6801C117.986 11.8081 118.344 11.8721 118.738 11.8721C119.24 11.8721 119.688 11.7601 120.082 11.5361C120.488 11.3015 120.856 10.9761 121.186 10.5601L123.57 12.6881C123.016 13.4028 122.312 13.9575 121.458 14.3521C120.616 14.7361 119.645 14.9281 118.546 14.9281ZM130.298 14.9281C129.391 14.9281 128.549 14.7841 127.77 14.4961C127.002 14.2081 126.335 13.8028 125.77 13.2801C125.205 12.7468 124.762 12.1228 124.442 11.4081C124.133 10.6935 123.978 9.91479 123.978 9.07212C123.978 8.21879 124.133 7.44012 124.442 6.73612C124.762 6.02145 125.205 5.40279 125.77 4.88012C126.335 4.34678 127.002 3.93612 127.77 3.64812C128.549 3.36012 129.391 3.21612 130.298 3.21612C131.215 3.21612 132.058 3.36012 132.826 3.64812C133.594 3.93612 134.261 4.34678 134.826 4.88012C135.391 5.40279 135.829 6.02145 136.138 6.73612C136.458 7.44012 136.618 8.21879 136.618 9.07212C136.618 9.91479 136.458 10.6935 136.138 11.4081C135.829 12.1228 135.391 12.7468 134.826 13.2801C134.261 13.8028 133.594 14.2081 132.826 14.4961C132.058 14.7841 131.215 14.9281 130.298 14.9281ZM130.298 11.8721C130.65 11.8721 130.975 11.8081 131.274 11.6801C131.583 11.5521 131.85 11.3708 132.074 11.1361C132.309 10.8908 132.49 10.5975 132.618 10.2561C132.746 9.90412 132.81 9.50945 132.81 9.07212C132.81 8.63479 132.746 8.24545 132.618 7.90412C132.49 7.55212 132.309 7.25879 132.074 7.02412C131.85 6.77879 131.583 6.59212 131.274 6.46412C130.975 6.33612 130.65 6.27212 130.298 6.27212C129.946 6.27212 129.615 6.33612 129.306 6.46412C129.007 6.59212 128.741 6.77879 128.506 7.02412C128.282 7.25879 128.106 7.55212 127.978 7.90412C127.85 8.24545 127.786 8.63479 127.786 9.07212C127.786 9.50945 127.85 9.90412 127.978 10.2561C128.106 10.5975 128.282 10.8908 128.506 11.1361C128.741 11.3708 129.007 11.5521 129.306 11.6801C129.615 11.8081 129.946 11.8721 130.298 11.8721ZM137.989 14.6721V3.47212H141.093L146.789 10.2881H145.349V3.47212H149.029V14.6721H145.925L140.229 7.85612H141.669V14.6721H137.989ZM150.848 14.6721V3.47212H156.368C157.616 3.47212 158.715 3.70145 159.664 4.16012C160.613 4.60812 161.355 5.24812 161.888 6.08012C162.421 6.91212 162.688 7.90412 162.688 9.05612C162.688 10.2188 162.421 11.2215 161.888 12.0641C161.355 12.8961 160.613 13.5415 159.664 14.0001C158.715 14.4481 157.616 14.6721 156.368 14.6721H150.848ZM154.624 11.7281H156.208C156.741 11.7281 157.205 11.6268 157.6 11.4241C158.005 11.2215 158.32 10.9228 158.544 10.5281C158.768 10.1228 158.88 9.63212 158.88 9.05612C158.88 8.49079 158.768 8.01079 158.544 7.61612C158.32 7.22145 158.005 6.92279 157.6 6.72012C157.205 6.51745 156.741 6.41612 156.208 6.41612H154.624V11.7281ZM164.067 14.6721V3.47212H167.843V14.6721H164.067ZM175.453 14.9281C174.557 14.9281 173.725 14.7895 172.957 14.5121C172.199 14.2241 171.538 13.8188 170.973 13.2961C170.418 12.7735 169.986 12.1548 169.677 11.4401C169.367 10.7255 169.213 9.93612 169.213 9.07212C169.213 8.20812 169.367 7.41879 169.677 6.70412C169.986 5.98945 170.418 5.37079 170.973 4.84812C171.538 4.32545 172.199 3.92545 172.957 3.64812C173.725 3.36012 174.557 3.21612 175.453 3.21612C176.551 3.21612 177.522 3.40812 178.365 3.79212C179.218 4.17612 179.922 4.73079 180.477 5.45612L178.093 7.58412C177.762 7.16812 177.394 6.84812 176.989 6.62412C176.594 6.38945 176.146 6.27212 175.645 6.27212C175.25 6.27212 174.893 6.33612 174.573 6.46412C174.253 6.59212 173.975 6.77879 173.741 7.02412C173.517 7.26945 173.341 7.56812 173.213 7.92012C173.085 8.26145 173.021 8.64545 173.021 9.07212C173.021 9.49879 173.085 9.88812 173.213 10.2401C173.341 10.5815 173.517 10.8748 173.741 11.1201C173.975 11.3655 174.253 11.5521 174.573 11.6801C174.893 11.8081 175.25 11.8721 175.645 11.8721C176.146 11.8721 176.594 11.7601 176.989 11.5361C177.394 11.3015 177.762 10.9761 178.093 10.5601L180.477 12.6881C179.922 13.4028 179.218 13.9575 178.365 14.3521C177.522 14.7361 176.551 14.9281 175.453 14.9281ZM181.567 14.6721V3.47212H185.343V14.6721H181.567ZM193.033 14.9281C192.126 14.9281 191.283 14.7841 190.505 14.4961C189.737 14.2081 189.07 13.8028 188.505 13.2801C187.939 12.7468 187.497 12.1228 187.177 11.4081C186.867 10.6935 186.713 9.91479 186.713 9.07212C186.713 8.21879 186.867 7.44012 187.177 6.73612C187.497 6.02145 187.939 5.40279 188.505 4.88012C189.07 4.34678 189.737 3.93612 190.505 3.64812C191.283 3.36012 192.126 3.21612 193.033 3.21612C193.95 3.21612 194.793 3.36012 195.561 3.64812C196.329 3.93612 196.995 4.34678 197.561 4.88012C198.126 5.40279 198.563 6.02145 198.873 6.73612C199.193 7.44012 199.353 8.21879 199.353 9.07212C199.353 9.91479 199.193 10.6935 198.873 11.4081C198.563 12.1228 198.126 12.7468 197.561 13.2801C196.995 13.8028 196.329 14.2081 195.561 14.4961C194.793 14.7841 193.95 14.9281 193.033 14.9281ZM193.033 11.8721C193.385 11.8721 193.71 11.8081 194.009 11.6801C194.318 11.5521 194.585 11.3708 194.809 11.1361C195.043 10.8908 195.225 10.5975 195.353 10.2561C195.481 9.90412 195.545 9.50945 195.545 9.07212C195.545 8.63479 195.481 8.24545 195.353 7.90412C195.225 7.55212 195.043 7.25879 194.809 7.02412C194.585 6.77879 194.318 6.59212 194.009 6.46412C193.71 6.33612 193.385 6.27212 193.033 6.27212C192.681 6.27212 192.35 6.33612 192.041 6.46412C191.742 6.59212 191.475 6.77879 191.241 7.02412C191.017 7.25879 190.841 7.55212 190.713 7.90412C190.585 8.24545 190.521 8.63479 190.521 9.07212C190.521 9.50945 190.585 9.90412 190.713 10.2561C190.841 10.5975 191.017 10.8908 191.241 11.1361C191.475 11.3708 191.742 11.5521 192.041 11.6801C192.35 11.8081 192.681 11.8721 193.033 11.8721ZM200.723 14.6721V3.47212H203.827L209.523 10.2881H208.083V3.47212H211.763V14.6721H208.659L202.963 7.85612H204.403V14.6721H200.723ZM217.038 7.63212H222.03V10.3521H217.038V7.63212ZM217.294 11.8241H222.894V14.6721H213.582V3.47212H222.686V6.32012H217.294V11.8241ZM228.524 14.9281C227.585 14.9281 226.679 14.8215 225.804 14.6081C224.929 14.3948 224.209 14.1175 223.644 13.7761L224.86 11.0241C225.393 11.3335 225.985 11.5841 226.636 11.7761C227.297 11.9575 227.937 12.0481 228.556 12.0481C228.919 12.0481 229.201 12.0268 229.404 11.9841C229.617 11.9308 229.772 11.8615 229.868 11.7761C229.964 11.6801 230.012 11.5681 230.012 11.4401C230.012 11.2375 229.9 11.0775 229.676 10.9601C229.452 10.8428 229.153 10.7468 228.78 10.6721C228.417 10.5868 228.017 10.5015 227.58 10.4161C227.143 10.3201 226.7 10.1975 226.252 10.0481C225.815 9.89879 225.409 9.70145 225.036 9.45612C224.673 9.21079 224.38 8.89079 224.156 8.49612C223.932 8.09079 223.82 7.58945 223.82 6.99212C223.82 6.29879 224.012 5.66945 224.396 5.10412C224.791 4.52812 225.372 4.06945 226.14 3.72812C226.919 3.38679 227.884 3.21612 229.036 3.21612C229.793 3.21612 230.54 3.29612 231.276 3.45612C232.012 3.61612 232.673 3.86145 233.26 4.19212L232.124 6.92812C231.569 6.65079 231.031 6.44279 230.508 6.30412C229.996 6.16545 229.495 6.09612 229.004 6.09612C228.641 6.09612 228.353 6.12812 228.14 6.19212C227.927 6.25612 227.772 6.34145 227.676 6.44812C227.591 6.55479 227.548 6.67212 227.548 6.80012C227.548 6.99212 227.66 7.14679 227.884 7.26412C228.108 7.37079 228.401 7.46145 228.764 7.53612C229.137 7.61079 229.543 7.69079 229.98 7.77612C230.428 7.86145 230.871 7.97879 231.308 8.12812C231.745 8.27745 232.145 8.47479 232.508 8.72012C232.881 8.96545 233.18 9.28545 233.404 9.68012C233.628 10.0748 233.74 10.5655 233.74 11.1521C233.74 11.8348 233.543 12.4641 233.148 13.0401C232.764 13.6055 232.188 14.0641 231.42 14.4161C230.652 14.7575 229.687 14.9281 228.524 14.9281Z" fill="#CE3273"></path>
</svg>
