<svg width="22" height="22" viewBox="0 0 22 22" fill="none" xmlns="http://www.w3.org/2000/svg">
<path d="M21.4999 0.0476074H0.755859V21.0273H21.4999V14.1033C21.587 13.9658 21.6299 13.8047 21.6229 13.6417C21.6352 13.4786 21.5918 13.3161 21.4999 13.1812" fill="url(#paint0_radial_1165_10976)"/>
<path d="M2.62602 9.12509L2.22603 8.1456L1.82602 9.12509H2.62602ZM11.413 8.73511C11.3234 8.77822 11.2238 8.79567 11.125 8.78551H10.417V8.23931H11.135C11.2292 8.23199 11.3238 8.24719 11.411 8.28365C11.4505 8.30368 11.4831 8.33507 11.5048 8.37382C11.5266 8.41257 11.5364 8.45695 11.533 8.50132C11.5369 8.54727 11.5281 8.59339 11.5076 8.63464C11.4872 8.67588 11.4558 8.71064 11.417 8.73511H11.413ZM16.466 9.12509L16.066 8.1456L15.666 9.12509H16.466ZM7.04703 10.1862H6.44702V8.26148L5.60103 10.1862H5.08902L4.24103 8.25948V10.1862H3.05502L2.83102 9.63802H1.61702L1.39102 10.1862H0.766022L1.81003 7.72841H2.67603L3.66803 10.0562V7.72841H4.62003L5.38303 9.39618L6.08302 7.72841H7.05403V10.1862H7.04703ZM9.42903 10.1862H7.48602V7.72841H9.43402V8.24032H8.06602V8.68372H9.39803V9.18758H8.06602V9.67834H9.43103L9.42903 10.1862ZM12.175 8.39046C12.1792 8.5285 12.1422 8.66464 12.069 8.78136C11.9958 8.89808 11.8895 8.99008 11.764 9.0455C11.8765 9.0874 11.9759 9.15868 12.052 9.25207C12.1348 9.38695 12.17 9.54599 12.152 9.70352V10.1862H11.566V9.87586C11.5901 9.71041 11.5576 9.54163 11.474 9.39719C11.4132 9.35307 11.3444 9.32146 11.2715 9.30416C11.1986 9.28687 11.123 9.28424 11.049 9.29641H10.423V10.1903H9.84003V7.73243H11.181C11.4226 7.70815 11.6662 7.74884 11.887 7.85034C11.9818 7.90299 12.0597 7.98176 12.1116 8.07742C12.1635 8.17309 12.1872 8.28167 12.18 8.39046H12.175ZM13.108 10.1862H12.513V7.72841H13.108V10.1862ZM20.008 10.1862H19.182L18.077 8.3411V10.1862H16.896L16.669 9.63802H15.458L15.238 10.1862H14.556C14.3951 10.2083 14.2313 10.1918 14.078 10.1381C13.9246 10.0844 13.7859 9.99507 13.6732 9.87728C13.5605 9.75949 13.4769 9.61657 13.4293 9.46014C13.3817 9.30372 13.3713 9.13817 13.399 8.97695C13.3855 8.80373 13.4063 8.62953 13.4602 8.46448C13.5141 8.29943 13.6 8.14686 13.713 8.01561C13.8337 7.91016 13.9744 7.83043 14.1265 7.78124C14.2786 7.73205 14.439 7.71444 14.598 7.72942H15.163V8.25644H14.61C14.5292 8.24634 14.4472 8.2541 14.3697 8.27916C14.2921 8.30422 14.2209 8.34599 14.161 8.40156C14.0381 8.55973 13.9782 8.75847 13.993 8.95884C13.9752 9.16448 14.0321 9.36965 14.153 9.53626C14.2666 9.63052 14.4124 9.67608 14.559 9.66321H14.821L15.643 7.7304H16.517L17.504 10.0552V7.7304H18.392L19.417 9.44354V7.7304H20.017V10.1883L20.008 10.1862ZM0.749023 10.6689H1.74902L1.97403 10.1227H2.47403L2.69803 10.6689H4.65802V10.2517L4.83302 10.6709H5.85103L6.02603 10.2457V10.6689H10.897V9.77306H10.991C11.057 9.77306 11.076 9.78112 11.076 9.89096V10.6689H13.595V10.4603C13.8853 10.6051 14.2062 10.6767 14.53 10.6689H15.59L15.817 10.1227H16.317L16.539 10.6689H18.581V10.1499L18.89 10.6689H20.527V7.24269H18.907V7.64577L18.68 7.24269H17.026V7.64577L16.818 7.24269H14.573C14.2371 7.22704 13.9026 7.2963 13.6 7.44422V7.24269H12.051V7.44422C11.8639 7.29745 11.6295 7.22568 11.393 7.24269H5.73303L5.35303 8.12847L4.96303 7.24269H3.18002V7.64577L2.98003 7.24269H1.46602L0.760025 8.87217V10.6709L0.749023 10.6689Z" fill="white"/>
<path d="M21.4999 12.4828H20.4369C20.3556 12.4728 20.2732 12.4883 20.2009 12.5271C20.1721 12.5461 20.149 12.5727 20.134 12.6039C20.1191 12.6351 20.1128 12.6699 20.1159 12.7044C20.1144 12.7449 20.1262 12.7847 20.1493 12.8178C20.1724 12.851 20.2056 12.8755 20.2439 12.8878C20.3167 12.9102 20.3929 12.9197 20.4689 12.9161L20.7849 12.9251C21.0228 12.9034 21.2599 12.9756 21.4459 13.1267C21.4664 13.1444 21.4846 13.1647 21.4999 13.1871V12.4828ZM21.4999 14.1082C21.4035 14.2216 21.281 14.3096 21.1431 14.3644C21.0053 14.4192 20.8562 14.4392 20.7089 14.4226H19.5829V13.8956H20.7039C20.7875 13.9061 20.8719 13.8841 20.9399 13.8341C20.9618 13.8137 20.9793 13.7889 20.9912 13.7613C21.0031 13.7337 21.0091 13.7039 21.0089 13.6739C21.0101 13.6432 21.0044 13.6126 20.9921 13.5845C20.9798 13.5563 20.9612 13.5314 20.9379 13.5116C20.8784 13.469 20.8055 13.4496 20.7329 13.4572C20.1859 13.4391 19.5029 13.4743 19.5029 12.6964C19.5029 12.3396 19.7279 11.9648 20.3399 11.9648H21.5009V11.476H20.4219C20.1635 11.4632 19.9078 11.5339 19.6919 11.6776V11.476H18.0919C17.8426 11.4612 17.5958 11.5323 17.3919 11.6776V11.476H14.5419V11.6776C14.3029 11.5397 14.0312 11.47 13.7559 11.476H11.8759V11.6776C11.631 11.522 11.3424 11.4513 11.0539 11.476H8.9539L8.4729 12.001L8.0219 11.476H4.87891V14.9023H7.96291L8.46291 14.3692L8.9299 14.9023H10.8299V14.0961H11.0169C11.293 14.1133 11.5696 14.0721 11.8289 13.9752V14.9013H13.3969V14.0105H13.4729C13.5729 14.0105 13.5789 14.0105 13.5789 14.1112V14.9043H18.3419C18.6224 14.9154 18.8995 14.8387 19.1349 14.6846V14.9043H20.6459C20.9389 14.9146 21.2306 14.8606 21.5009 14.7461V14.1072L21.4999 14.1082ZM19.1739 13.1257C19.2371 13.1957 19.2852 13.2781 19.3151 13.3678C19.3451 13.4575 19.3562 13.5524 19.3479 13.6467C19.3479 14.1757 19.0199 14.4226 18.4319 14.4226H17.2959V13.8956H18.4269C18.511 13.9055 18.5959 13.8836 18.6649 13.8341C18.6868 13.8136 18.7042 13.7888 18.716 13.7613C18.7279 13.7337 18.734 13.7039 18.7339 13.6739C18.7345 13.6432 18.7284 13.6129 18.7162 13.5849C18.7039 13.5568 18.6857 13.5319 18.6629 13.5116C18.6023 13.4688 18.5285 13.4495 18.4549 13.4572C17.9099 13.4391 17.2269 13.4743 17.2269 12.6964C17.2269 12.3396 17.4489 11.9648 18.0609 11.9648H19.2299V12.4878H18.1599C18.0792 12.4779 17.9975 12.4934 17.9259 12.5321C17.8943 12.5524 17.869 12.5812 17.8529 12.6152C17.8367 12.6492 17.8304 12.6871 17.8346 12.7246C17.8387 12.7621 17.8532 12.7976 17.8765 12.8272C17.8997 12.8567 17.9307 12.8792 17.9659 12.8919C18.0394 12.9143 18.1162 12.9239 18.1929 12.9201L18.5069 12.9292C18.7455 12.9053 18.9841 12.9741 19.1739 13.1216V13.1257ZM13.9129 12.9735C13.823 13.0158 13.7236 13.0331 13.6249 13.0239H12.9169V12.4717H13.6349C13.7298 12.463 13.8253 12.4782 13.9129 12.516C13.9519 12.5373 13.984 12.5694 14.0055 12.6085C14.0269 12.6476 14.0368 12.6921 14.0339 12.7367C14.0356 12.7827 14.0253 12.8284 14.004 12.8693C13.9828 12.9101 13.9514 12.9446 13.9129 12.9695V12.9735ZM14.2649 13.2758C14.3771 13.3147 14.4762 13.3845 14.5509 13.4774C14.6323 13.6117 14.6675 13.7693 14.6509 13.9258V14.4135H14.0659V14.1112C14.0659 13.9631 14.0799 13.7444 13.9719 13.6305C13.9114 13.5844 13.8424 13.551 13.7689 13.5323C13.6953 13.5136 13.6188 13.51 13.5439 13.5217H12.9209V14.4135H12.3349V11.9547H13.6809C13.9202 11.9341 14.1608 11.9739 14.3809 12.0706C14.4778 12.1229 14.5576 12.2023 14.6108 12.2991C14.664 12.396 14.6884 12.5063 14.6809 12.6168C14.6858 12.756 14.6486 12.8935 14.5744 13.0109C14.5001 13.1284 14.3922 13.2204 14.2649 13.2748V13.2758ZM15.0009 11.9597H16.9469V12.4636H15.5819V12.911H16.9139V13.4149H15.5819V13.9036H16.9469V14.4135H15.0019L15.0009 11.9597ZM11.0669 13.0944H10.3129V12.4686H11.0729C11.2839 12.4686 11.4299 12.5553 11.4299 12.771C11.4299 12.9866 11.2919 13.0934 11.0679 13.0934L11.0669 13.0944ZM9.73289 14.1948L8.8329 13.1932L9.73289 12.2238V14.1948ZM7.42191 13.9097H5.9879V13.4209H7.2679V12.9171H5.9879V12.4697H7.44991L8.08791 13.1861L7.42191 13.9097ZM12.0569 12.773C12.0569 13.4562 11.5509 13.5973 11.0419 13.5973H10.3139V14.4135H9.18091L8.46291 13.5993L7.72191 14.4135H5.4119V11.9547H7.7569L8.47391 12.7609L9.2159 11.9547H11.0789C11.5369 11.9587 12.0569 12.0877 12.0569 12.769V12.773Z" fill="white"/>
<defs>
<radialGradient id="paint0_radial_1165_10976" cx="0" cy="0" r="1" gradientUnits="userSpaceOnUse" gradientTransform="translate(-3.47306 9285.23) scale(19.4735 19.616)">
<stop stop-color="#9DD5F6"/>
<stop offset="0.071" stop-color="#98D3F5"/>
<stop offset="0.157" stop-color="#89CEF3"/>
<stop offset="0.252" stop-color="#70C6EF"/>
<stop offset="0.351" stop-color="#4EBBEA"/>
<stop offset="0.455" stop-color="#23ADE3"/>
<stop offset="0.5" stop-color="#0DA6E0"/>
<stop offset="1" stop-color="#2E77BC"/>
</radialGradient>
</defs>
</svg>
