<svg width="54" height="15" viewBox="0 0 54 15" fill="none" xmlns="http://www.w3.org/2000/svg">
<path d="M10.3058 14.1124C12.1775 14.1262 13.9818 13.409 15.3401 12.1113C16.6985 10.8137 17.5055 9.03634 17.5918 7.15215C17.5803 6.20343 17.3821 5.26643 17.0086 4.39547C16.6352 3.52451 16.0939 2.7369 15.4162 2.07825C14.7385 1.41961 13.9379 0.903039 13.0606 0.558467C12.1834 0.213895 11.247 0.0481699 10.3058 0.0709071H7.02779C6.09923 0.049695 5.17604 0.218352 4.31397 0.566709C3.4519 0.915065 2.66884 1.43589 2.01208 2.09772C1.35532 2.75955 0.838489 3.54864 0.492801 4.41737C0.147113 5.28609 -0.0202608 6.21642 0.000788876 7.15215C0.0203237 9.01302 0.770752 10.7903 2.08778 12.0948C3.4048 13.3993 5.18111 14.1248 7.02779 14.1124H10.3058Z" fill="#005297"/>
<path d="M8.48955 10.8827V3.27652C9.25353 3.57093 9.91084 4.09207 10.3746 4.77106C10.8383 5.45005 11.0865 6.25489 11.0865 7.07914C11.0865 7.90339 10.8383 8.70821 10.3746 9.38719C9.91084 10.0662 9.25353 10.5874 8.48955 10.8818V10.8827ZM3.00055 7.07862C3.00175 6.25498 3.25027 5.45101 3.71344 4.77238C4.17661 4.09376 4.83274 3.57229 5.59556 3.27652V10.8797C4.83274 10.5843 4.17657 10.063 3.71338 9.38452C3.25018 8.70604 3.00168 7.90215 3.00055 7.07862ZM7.04255 0.650391C5.78115 0.650391 4.54807 1.02733 3.49923 1.73352C2.4504 2.4397 1.63291 3.44342 1.15015 4.61779C0.66738 5.79215 0.541017 7.0844 0.787032 8.33113C1.03305 9.57786 1.64039 10.7231 2.53227 11.622C3.42415 12.5209 4.56051 13.1331 5.79766 13.3812C7.0348 13.6293 8.31717 13.5022 9.48262 13.0159C10.6481 12.5296 11.6442 11.7059 12.3452 10.6491C13.0461 9.5923 13.4204 8.34976 13.4206 7.07862C13.4206 5.37392 12.7486 3.73902 11.5525 2.53353C10.3565 1.32803 8.7342 0.650658 7.04255 0.650391Z" fill="white"/>
<path d="M20.6659 8.82798C20.6659 9.39633 21.0659 9.46281 21.4289 9.46281C21.7238 9.47358 22.0174 9.4198 22.2897 9.30517C22.5619 9.19054 22.8063 9.01782 23.0059 8.79885C23.2055 8.57989 23.3556 8.31989 23.4459 8.03682C23.5362 7.75375 23.5645 7.45435 23.5289 7.15919C23.5517 6.8468 23.5085 6.5331 23.4022 6.23875C23.296 5.9444 23.129 5.67607 22.9124 5.45147C22.6957 5.22686 22.4343 5.05108 22.1453 4.93568C21.8564 4.82028 21.5464 4.76789 21.2359 4.78197C20.9359 4.78197 20.7969 4.80313 20.6639 4.81119L20.6659 8.82798ZM19.9479 5.36342C19.9479 4.69934 19.6039 4.74268 19.2749 4.73563V4.54416C19.5609 4.55827 19.8539 4.55828 20.1399 4.55828C20.4479 4.55828 20.8649 4.54416 21.4079 4.54416C21.7709 4.50784 22.1375 4.54692 22.485 4.65896C22.8324 4.771 23.1534 4.95362 23.4281 5.19557C23.7028 5.43752 23.9253 5.73366 24.082 6.06567C24.2386 6.39768 24.3261 6.75851 24.3389 7.12591C24.3389 7.85752 23.9139 9.69561 21.3199 9.69561C20.9469 9.69561 20.6019 9.68048 20.2569 9.68048C19.9119 9.68048 19.6049 9.68755 19.2749 9.69561V9.50414C19.7139 9.4598 19.9269 9.44468 19.9479 8.94284V5.36342Z" fill="#17100D"/>
<path d="M25.3778 5.1882C25.2825 5.1882 25.191 5.15001 25.1236 5.08207C25.0562 5.01413 25.0183 4.92201 25.0183 4.82593C25.0183 4.72984 25.0562 4.63769 25.1236 4.56975C25.191 4.50181 25.2825 4.46362 25.3778 4.46362C25.472 4.46361 25.5624 4.5009 25.6296 4.56745C25.6967 4.63399 25.7352 4.72448 25.7368 4.81937C25.7368 4.91598 25.6992 5.00873 25.6321 5.0777C25.565 5.14667 25.4737 5.18635 25.3778 5.1882ZM24.5938 9.50827H24.7328C24.9328 9.50827 25.0838 9.50826 25.0838 9.26338V7.26206C25.0838 6.93758 24.9738 6.89223 24.7028 6.7451V6.6272C25.0478 6.52642 25.4578 6.38335 25.4868 6.36118C25.5267 6.33712 25.5723 6.32423 25.6188 6.32388C25.6548 6.32388 25.6698 6.36822 25.6698 6.42466V9.25935C25.6698 9.50423 25.8308 9.50424 26.0368 9.50424H26.1608V9.69571C25.9118 9.69571 25.6548 9.68058 25.3918 9.68058C25.1288 9.68058 24.8638 9.68765 24.5918 9.69571L24.5938 9.50827Z" fill="#17100D"/>
<path d="M26.859 7.30744C26.859 7.03435 26.778 6.96079 26.434 6.82071V6.68063C26.7623 6.57951 27.0851 6.46112 27.401 6.32593C27.423 6.32593 27.444 6.34104 27.444 6.39949V6.88016C27.7949 6.55954 28.241 6.36471 28.713 6.32593C29.336 6.32593 29.555 6.78444 29.555 7.35985V9.26442C29.555 9.50829 29.716 9.50829 29.921 9.50829H30.053V9.69976C29.796 9.69976 29.539 9.68463 29.276 9.68463C29.013 9.68463 28.748 9.6917 28.484 9.69976V9.50829H28.616C28.821 9.50829 28.967 9.50829 28.967 9.26442V7.34976C28.967 6.92853 28.712 6.72194 28.294 6.72194C27.9864 6.77035 27.6947 6.89197 27.443 7.07667V9.26242C27.443 9.50629 27.605 9.50626 27.81 9.50626H27.942V9.69773C27.686 9.69773 27.429 9.68263 27.165 9.68263C26.901 9.68263 26.637 9.68967 26.374 9.69773V9.50626H26.506C26.711 9.50626 26.857 9.50629 26.857 9.26242L26.859 7.30744Z" fill="#17100D"/>
<path d="M31.9088 7.42534C32.0918 7.42534 32.1089 7.32459 32.1089 7.24095C32.1164 7.15293 32.1053 7.0643 32.0764 6.9809C32.0475 6.89749 32.0014 6.82118 31.9411 6.75702C31.8809 6.69286 31.8078 6.64229 31.7267 6.60863C31.6457 6.57497 31.5585 6.55899 31.4709 6.56173C31.0239 6.56173 30.7158 6.89327 30.6288 7.42534H31.9088ZM30.6089 7.66217C30.5918 7.80441 30.5918 7.9482 30.6089 8.09044C30.5956 8.40099 30.6991 8.70514 30.8988 8.94206C31.0985 9.17897 31.3796 9.33119 31.6859 9.36823C31.8755 9.35776 32.0611 9.30851 32.2313 9.22345C32.4015 9.13838 32.5528 9.01929 32.6759 8.87345L32.7758 8.97422C32.6332 9.21285 32.4356 9.41328 32.1997 9.55853C31.9638 9.70379 31.6966 9.78958 31.4209 9.80862C31.2224 9.7996 31.0278 9.7502 30.8488 9.6634C30.6699 9.5766 30.5102 9.4542 30.3793 9.30356C30.2485 9.15291 30.1493 8.97714 30.0877 8.78684C30.0261 8.59655 30.0034 8.39566 30.0208 8.19626C30.0208 6.74918 30.9879 6.31989 31.5009 6.31989C31.6588 6.30946 31.8171 6.33161 31.9662 6.385C32.1153 6.43838 32.2521 6.52189 32.3681 6.63038C32.4841 6.73886 32.5769 6.87005 32.6408 7.01593C32.7047 7.16181 32.7384 7.3193 32.7399 7.47876C32.7411 7.52319 32.7391 7.56764 32.7339 7.61177L32.6678 7.65611L30.6089 7.66217Z" fill="#17100D"/>
<path d="M32.9116 9.50832H33.1116C33.3116 9.50832 33.4626 9.50832 33.4626 9.26445V7.18954C33.4626 6.96078 33.1916 6.91646 33.0816 6.857V6.74715C33.6166 6.51739 33.9096 6.32593 33.9816 6.32593C34.0246 6.32593 34.0466 6.3481 34.0466 6.42671V7.09079H34.0626C34.2446 6.80258 34.5536 6.32996 34.9996 6.32996C35.0526 6.32753 35.1056 6.33578 35.1555 6.35419C35.2053 6.3726 35.251 6.40083 35.2899 6.43722C35.3288 6.47362 35.3602 6.51742 35.3821 6.56614C35.404 6.61486 35.4161 6.66748 35.4176 6.72095C35.42 6.76857 35.413 6.81619 35.397 6.86103C35.3809 6.90588 35.3561 6.94705 35.3241 6.98214C35.2921 7.01723 35.2534 7.04555 35.2104 7.06542C35.1674 7.08528 35.1209 7.09632 35.0736 7.09786C34.8456 7.09786 34.8456 6.92048 34.5896 6.92048C34.4423 6.94081 34.3071 7.01392 34.2089 7.12643C34.1107 7.23894 34.0559 7.38332 34.0546 7.53317V9.26746C34.0546 9.51133 34.2006 9.51133 34.4056 9.51133H34.8156V9.7028C34.4156 9.69575 34.1056 9.68767 33.7906 9.68767C33.4756 9.68767 33.1826 9.69474 32.9186 9.7028L32.9116 9.50832Z" fill="#17100D"/>
<path d="M35.7356 8.67273C35.7529 8.91107 35.8566 9.13466 36.0271 9.30083C36.1975 9.467 36.4227 9.56412 36.6596 9.57364C36.7338 9.58459 36.8095 9.57916 36.8814 9.55774C36.9534 9.53633 37.0198 9.49944 37.0762 9.44962C37.1326 9.39979 37.1776 9.33822 37.208 9.26916C37.2385 9.2001 37.2537 9.12518 37.2526 9.04961C37.2526 8.17793 35.6526 8.45809 35.6526 7.26999C35.6609 7.13098 35.6975 6.9952 35.7601 6.87106C35.8228 6.74692 35.9101 6.6371 36.0166 6.54843C36.1232 6.45976 36.2467 6.39415 36.3795 6.35567C36.5124 6.31719 36.6516 6.30667 36.7886 6.32476C37.0795 6.33194 37.3649 6.4053 37.6236 6.53939L37.6756 7.29216H37.5066C37.5031 7.1908 37.4794 7.09117 37.437 6.99918C37.3946 6.90719 37.3343 6.82471 37.2598 6.7566C37.1852 6.68849 37.0978 6.63615 37.0028 6.60265C36.9078 6.56915 36.8071 6.55517 36.7066 6.56156C36.6369 6.55363 36.5663 6.56014 36.4992 6.58069C36.432 6.60124 36.3698 6.63543 36.3162 6.6811C36.2627 6.72677 36.2189 6.78299 36.1877 6.8463C36.1565 6.90962 36.1384 6.9787 36.1346 7.04931C36.1346 7.91393 37.8346 7.64788 37.8346 8.80675C37.8346 9.29449 37.4466 9.81447 36.5736 9.81447C36.2598 9.80527 35.953 9.71915 35.6796 9.56356L35.5986 8.71403L35.7356 8.67273Z" fill="#17100D"/>
<path d="M44.4528 5.88152H44.2698C44.2459 5.69825 44.1864 5.52152 44.0946 5.36148C44.0028 5.20145 43.8806 5.06124 43.7349 4.9489C43.5892 4.83656 43.423 4.75432 43.2457 4.70684C43.0684 4.65937 42.8836 4.6476 42.7018 4.67225C42.4085 4.6735 42.1187 4.73701 41.8513 4.85861C41.584 4.9802 41.345 5.15717 41.15 5.378C40.955 5.59883 40.8084 5.85857 40.7196 6.14031C40.6308 6.42204 40.6019 6.71944 40.6348 7.01317C40.5919 7.64376 40.797 8.26605 41.2056 8.74556C41.6143 9.22506 42.1937 9.52328 42.8188 9.5758C43.1755 9.57574 43.5205 9.44681 43.7909 9.21236C44.0614 8.97791 44.2395 8.6535 44.2928 8.29804L44.4608 8.34235L44.2928 9.42062C43.7851 9.66145 43.2337 9.79486 42.6728 9.81263C42.3017 9.8409 41.9289 9.78883 41.5794 9.65988C41.23 9.53092 40.9119 9.32807 40.6467 9.06499C40.3815 8.80191 40.1752 8.48469 40.0417 8.13461C39.9082 7.78454 39.8506 7.40971 39.8728 7.03534C39.9025 6.32073 40.2108 5.64681 40.7308 5.15999C41.2508 4.67317 41.9404 4.41278 42.6498 4.43545C43.2439 4.46703 43.8285 4.59958 44.3788 4.82746L44.4528 5.88152Z" fill="#17100D"/>
<path d="M44.7178 9.50319H44.8568C45.0628 9.50319 45.2088 9.50322 45.2088 9.25935V5.14683C45.2088 4.66615 45.0988 4.65205 44.8208 4.57043V4.45252C45.0809 4.36919 45.3332 4.26296 45.5748 4.13509C45.6251 4.10153 45.6791 4.07413 45.7358 4.05347C45.7798 4.05347 45.7948 4.09781 45.7948 4.15424V9.25631C45.7948 9.50018 45.9558 9.50018 46.1608 9.50018H46.2848V9.69165C46.0368 9.69165 45.7798 9.67652 45.5158 9.67652C45.2518 9.67652 44.9888 9.68359 44.7158 9.69165L44.7178 9.50319Z" fill="#17100D"/>
<path d="M49.4238 9.29558C49.4238 9.4286 49.5048 9.43566 49.6238 9.43566C49.7118 9.43566 49.8238 9.42859 49.9178 9.42859V9.58377C49.5607 9.63389 49.2078 9.71037 48.8618 9.81254L48.8248 9.79037V9.19481C48.4841 9.5586 48.02 9.77984 47.5248 9.81454C47.4124 9.81745 47.3007 9.79617 47.1972 9.75211C47.0937 9.70806 47.0006 9.64225 46.9243 9.55908C46.8481 9.4759 46.7903 9.37729 46.7548 9.26981C46.7194 9.16233 46.7071 9.04848 46.7188 8.93583V7.04433C46.7188 6.85186 46.6898 6.66744 46.2798 6.63117V6.49109C46.5438 6.48403 47.1288 6.4397 47.2248 6.4397C47.3208 6.4397 47.3058 6.4911 47.3058 6.65334V8.55794C47.3058 8.77964 47.3058 9.41448 47.9428 9.41448C48.2772 9.36073 48.5868 9.20371 48.8288 8.96505V6.97782C48.8288 6.83069 48.4768 6.74908 48.2138 6.67551V6.5425C48.8728 6.49817 49.2838 6.44173 49.3568 6.44173C49.4298 6.44173 49.4158 6.49311 49.4158 6.57473L49.4238 9.29558Z" fill="#17100D"/>
<path d="M50.8808 8.86527C50.8909 9.06312 50.9738 9.25007 51.1135 9.38949C51.2531 9.52892 51.4394 9.61079 51.6358 9.61906C52.4198 9.61906 52.7498 8.84312 52.7498 8.18609C52.7669 7.83983 52.6568 7.49937 52.4406 7.22967C52.2245 6.95997 51.9173 6.77991 51.5778 6.72387C51.3109 6.75223 51.0627 6.87548 50.8778 7.07154L50.8808 8.86527ZM50.8808 6.85691C51.1753 6.56112 51.5599 6.3737 51.9728 6.32482C52.1646 6.33289 52.3528 6.37985 52.5261 6.4629C52.6994 6.54595 52.8543 6.66338 52.9816 6.80817C53.1088 6.95296 53.2058 7.12214 53.2667 7.30557C53.3275 7.48899 53.351 7.6829 53.3358 7.8757C53.3546 8.36549 53.1814 8.84306 52.8535 9.20513C52.5257 9.5672 52.0696 9.78468 51.5838 9.81053C51.2283 9.81008 50.8783 9.72147 50.5648 9.55254L50.3458 9.72184L50.1918 9.64124C50.2579 9.20772 50.2913 8.76978 50.2918 8.33118V5.15587C50.2918 4.67518 50.1818 4.66108 49.9028 4.57946V4.46155C50.1633 4.37839 50.416 4.27217 50.6578 4.14412C50.708 4.11038 50.762 4.08298 50.8188 4.0625C50.8628 4.0625 50.8768 4.10685 50.8768 4.16328L50.8808 6.85691Z" fill="#17100D"/>
<path d="M53.257 5.93281H53.313C53.374 5.93281 53.403 5.88643 53.403 5.81185C53.403 5.73728 53.3589 5.71111 53.3109 5.71111H53.2579L53.257 5.93281ZM53.098 6.18372V6.16053C53.156 6.15247 53.167 6.15449 53.167 6.11822V5.76551C53.167 5.71613 53.1619 5.69901 53.0999 5.70204V5.67783H53.3419C53.4249 5.67783 53.502 5.71713 53.502 5.8038C53.5017 5.8369 53.4905 5.86898 53.4702 5.89504C53.45 5.9211 53.4218 5.93969 53.39 5.94791L53.4669 6.05674C53.4943 6.09908 53.528 6.13682 53.567 6.16859V6.18372H53.4749C53.4309 6.18372 53.392 6.08999 53.305 5.96402H53.2519V6.12225C53.2519 6.15348 53.263 6.15146 53.321 6.15952V6.18271L53.098 6.18372ZM53.3329 6.31876C53.4093 6.32076 53.4846 6.29975 53.549 6.25842C53.6135 6.21709 53.6643 6.15732 53.6949 6.08676C53.7254 6.01619 53.7344 5.93803 53.7207 5.86229C53.7069 5.78655 53.6711 5.71666 53.6177 5.66156C53.5643 5.60647 53.4958 5.56869 53.421 5.55304C53.3462 5.53738 53.2684 5.54458 53.1977 5.5737C53.127 5.60283 53.0665 5.65255 53.0239 5.71652C52.9814 5.78049 52.9588 5.85581 52.959 5.93281C52.9581 6.03385 52.997 6.13111 53.067 6.2034C53.1371 6.2757 53.2327 6.31717 53.3329 6.31876ZM53.3329 5.45515C53.4262 5.45535 53.5172 5.48336 53.5947 5.53566C53.6721 5.58796 53.7325 5.66218 53.7681 5.749C53.8038 5.83581 53.8131 5.93129 53.7949 6.02344C53.7767 6.11558 53.7319 6.20026 53.666 6.26675C53.6002 6.33325 53.5163 6.37862 53.4249 6.39712C53.3335 6.41561 53.2387 6.40642 53.1525 6.3707C53.0662 6.33498 52.9925 6.27432 52.9404 6.19639C52.8883 6.11846 52.8603 6.02675 52.86 5.93281C52.8587 5.86983 52.8701 5.80722 52.8935 5.74878C52.9168 5.69034 52.9515 5.63723 52.9957 5.59265C53.0398 5.54806 53.0925 5.51291 53.1504 5.48929C53.2084 5.46566 53.2704 5.45405 53.3329 5.45515Z" fill="#17100D"/>
</svg>
