<svg width="27" height="22" viewBox="0 0 27 22" fill="none" xmlns="http://www.w3.org/2000/svg">
<path d="M6.57698 19.2301V18.1377C6.58325 18.0458 6.57 17.9535 6.53814 17.8671C6.50628 17.7808 6.45653 17.7022 6.3922 17.6367C6.32787 17.5712 6.25043 17.5203 6.16504 17.4873C6.07966 17.4543 5.98828 17.44 5.89698 17.4454C5.77734 17.4375 5.65778 17.4621 5.55082 17.5167C5.44386 17.5713 5.35343 17.6539 5.28898 17.7558C5.23021 17.6569 5.14603 17.5759 5.04535 17.5213C4.94467 17.4667 4.83122 17.4404 4.71698 17.4454C4.61741 17.4403 4.51823 17.4615 4.4293 17.5069C4.34037 17.5524 4.26476 17.6204 4.20998 17.7044V17.4897H3.83398V19.2331H4.21398V18.2737C4.20579 18.2141 4.21077 18.1534 4.22859 18.096C4.24641 18.0385 4.27661 17.9858 4.31703 17.9415C4.35746 17.8972 4.40711 17.8624 4.46242 17.8397C4.51774 17.817 4.57735 17.8069 4.63698 17.8102C4.88698 17.8102 5.01298 17.9744 5.01298 18.2697V19.2391H5.39298V18.2727C5.38515 18.2132 5.3904 18.1526 5.40835 18.0953C5.4263 18.0381 5.45652 17.9855 5.49687 17.9412C5.53722 17.897 5.58671 17.8623 5.64186 17.8394C5.697 17.8166 5.75644 17.8063 5.81598 17.8092C6.07298 17.8092 6.19598 17.9734 6.19598 18.2687V19.2381L6.57698 19.2301ZM12.198 17.4867H11.579V16.9587H11.199V17.4877H10.855V17.8354H11.206V18.6416C11.206 19.0446 11.362 19.2865 11.806 19.2865C11.9721 19.2869 12.135 19.2401 12.276 19.1515L12.167 18.827C12.0662 18.8883 11.9516 18.9229 11.834 18.9277C11.653 18.9277 11.584 18.8108 11.584 18.6365V17.8354H12.199L12.198 17.4867ZM15.407 17.4434C15.3152 17.4406 15.2245 17.4628 15.1442 17.5077C15.0639 17.5526 14.9972 17.6184 14.951 17.6983V17.4867H14.578V19.2301H14.954V18.2526C14.954 17.9644 15.077 17.8041 15.316 17.8041C15.3964 17.8029 15.4762 17.8176 15.551 17.8475L15.667 17.4827C15.581 17.4517 15.4903 17.4357 15.399 17.4353L15.407 17.4434ZM10.555 17.6258C10.3419 17.498 10.0968 17.4347 9.84898 17.4434C9.41098 17.4434 9.12498 17.655 9.12498 18.0017C9.12498 18.2858 9.33498 18.4612 9.72498 18.5156L9.90598 18.5408C10.112 18.57 10.206 18.6244 10.206 18.7232C10.206 18.8582 10.069 18.9348 9.81198 18.9348C9.60544 18.9407 9.40292 18.8765 9.23698 18.7524L9.05598 19.0477C9.27522 19.2018 9.53777 19.2809 9.80498 19.2734C10.305 19.2734 10.594 19.0366 10.594 18.705C10.594 18.3735 10.366 18.2385 9.99398 18.1841L9.81298 18.1589C9.64998 18.1367 9.51998 18.1044 9.51998 17.9875C9.51998 17.8707 9.64298 17.786 9.84898 17.786C10.0397 17.7881 10.2266 17.8394 10.392 17.9351L10.555 17.6258ZM20.634 17.4434C20.5422 17.4406 20.4515 17.4628 20.3712 17.5077C20.2909 17.5526 20.2242 17.6184 20.178 17.6983V17.4867H19.805V19.2301H20.181V18.2526C20.181 17.9644 20.304 17.8041 20.543 17.8041C20.6234 17.8029 20.7032 17.8176 20.778 17.8475L20.894 17.4827C20.808 17.4517 20.7173 17.4357 20.626 17.4353L20.634 17.4434ZM15.786 18.3503C15.7822 18.4724 15.8036 18.594 15.849 18.7073C15.8943 18.8207 15.9626 18.9232 16.0494 19.0085C16.1362 19.0938 16.2397 19.16 16.3532 19.2028C16.4668 19.2456 16.5879 19.2642 16.709 19.2573C16.9348 19.2693 17.1569 19.1952 17.331 19.0497L17.15 18.7474C17.02 18.8474 16.8615 18.9025 16.698 18.9046C16.5582 18.8942 16.4275 18.8309 16.3322 18.7275C16.2368 18.624 16.1838 18.488 16.1838 18.3468C16.1838 18.2056 16.2368 18.0696 16.3322 17.9661C16.4275 17.8627 16.5582 17.7994 16.698 17.789C16.8615 17.7911 17.02 17.8462 17.15 17.9462L17.331 17.6439C17.1569 17.4984 16.9348 17.4243 16.709 17.4363C16.5879 17.4294 16.4668 17.448 16.3532 17.4908C16.2397 17.5336 16.1362 17.5998 16.0494 17.6851C15.9626 17.7704 15.8943 17.8729 15.849 17.9862C15.8036 18.0996 15.7822 18.2211 15.786 18.3433V18.3503ZM19.31 18.3503V17.4827H18.934V17.6943C18.87 17.6115 18.7874 17.5452 18.693 17.5008C18.5986 17.4565 18.4951 17.4354 18.391 17.4394C18.1511 17.4394 17.921 17.5354 17.7514 17.7063C17.5818 17.8772 17.4865 18.1091 17.4865 18.3508C17.4865 18.5926 17.5818 18.8244 17.7514 18.9953C17.921 19.1663 18.1511 19.2623 18.391 19.2623C18.4951 19.2662 18.5986 19.2452 18.693 19.2008C18.7874 19.1565 18.87 19.0902 18.934 19.0074V19.219H19.31V18.3503ZM17.91 18.3503C17.918 18.2305 17.9668 18.1171 18.048 18.0293C18.1292 17.9414 18.238 17.8843 18.356 17.8677C18.474 17.8511 18.5941 17.8759 18.6961 17.938C18.7981 18.0001 18.8758 18.0957 18.9162 18.2087C18.9565 18.3217 18.957 18.4452 18.9176 18.5586C18.8782 18.6719 18.8013 18.7681 18.6999 18.8311C18.5984 18.894 18.4785 18.9199 18.3603 18.9043C18.2422 18.8887 18.1329 18.8325 18.051 18.7453C18.0023 18.6934 17.9647 18.6321 17.9402 18.565C17.9158 18.498 17.9052 18.4267 17.909 18.3554L17.91 18.3503ZM13.369 17.4434C13.2502 17.445 13.1329 17.4702 13.0238 17.5176C12.9147 17.5649 12.8159 17.6334 12.7331 17.7192C12.6502 17.8051 12.585 17.9065 12.5411 18.0177C12.4971 18.1289 12.4753 18.2478 12.477 18.3675C12.4786 18.4872 12.5036 18.6054 12.5506 18.7153C12.5976 18.8253 12.6656 18.9248 12.7507 19.0083C12.8359 19.0918 12.9365 19.1575 13.0469 19.2018C13.1573 19.2461 13.2752 19.268 13.394 19.2663C13.6542 19.2798 13.9101 19.1954 14.112 19.0295L13.931 18.7484C13.7889 18.8632 13.6131 18.9274 13.431 18.9308C13.3067 18.9415 13.1831 18.903 13.0866 18.8234C12.99 18.7438 12.9281 18.6294 12.914 18.5045H14.198V18.3584C14.2089 18.2433 14.1957 18.1271 14.1594 18.0174C14.123 17.9078 14.0643 17.807 13.987 17.7215C13.9096 17.6361 13.8154 17.5679 13.7104 17.5214C13.6053 17.4749 13.4917 17.4511 13.377 17.4514L13.369 17.4434ZM13.369 17.783C13.4253 17.7818 13.4813 17.7918 13.5339 17.8124C13.5864 17.833 13.6343 17.8639 13.675 17.9032C13.7157 17.9425 13.7483 17.9895 13.7709 18.0415C13.7936 18.0935 13.8058 18.1494 13.807 18.2062H12.907C12.9135 18.089 12.9652 17.9791 13.0512 17.9C13.1372 17.8208 13.2506 17.7788 13.367 17.783H13.369ZM22.796 18.3594V16.7874H22.434V17.6943C22.37 17.6115 22.2874 17.5452 22.193 17.5008C22.0986 17.4565 21.9951 17.4354 21.891 17.4394C21.6511 17.4394 21.421 17.5354 21.2514 17.7063C21.0818 17.8772 20.9865 18.1091 20.9865 18.3508C20.9865 18.5926 21.0818 18.8244 21.2514 18.9953C21.421 19.1663 21.6511 19.2623 21.891 19.2623C21.9951 19.2662 22.0986 19.2452 22.193 19.2008C22.2874 19.1565 22.37 19.0902 22.434 19.0074V19.219H22.796V18.3594ZM23.424 18.9771C23.4579 18.976 23.4915 18.985 23.5205 19.0029C23.5494 19.0208 23.5725 19.0469 23.587 19.0779C23.5962 19.0992 23.6009 19.1222 23.6009 19.1454C23.6009 19.1686 23.5962 19.1916 23.587 19.2129C23.5686 19.2543 23.5348 19.2869 23.493 19.3036C23.4712 19.3131 23.4477 19.3179 23.424 19.3177C23.3902 19.3179 23.357 19.3086 23.3282 19.2908C23.2994 19.273 23.2761 19.2474 23.261 19.217C23.2519 19.1956 23.2472 19.1727 23.2472 19.1494C23.2472 19.1262 23.2519 19.1033 23.261 19.0819C23.276 19.0503 23.2999 19.0238 23.3298 19.0059C23.3597 18.9879 23.3942 18.9793 23.429 18.9812L23.424 18.9771ZM23.424 19.2855C23.4419 19.2855 23.4596 19.2817 23.476 19.2744C23.4917 19.2674 23.5059 19.2575 23.518 19.2452C23.5327 19.2299 23.5434 19.2113 23.5494 19.191C23.5554 19.1706 23.5563 19.1491 23.5522 19.1282C23.548 19.1074 23.5389 19.0879 23.5257 19.0714C23.5124 19.0549 23.4953 19.0419 23.476 19.0336C23.4596 19.0263 23.4419 19.0225 23.424 19.0225C23.4061 19.0227 23.3884 19.0264 23.372 19.0336C23.3559 19.0403 23.3413 19.0503 23.329 19.0628C23.3111 19.0818 23.2992 19.1058 23.2949 19.1317C23.2906 19.1575 23.294 19.1841 23.3047 19.208C23.3155 19.2319 23.333 19.252 23.3551 19.2658C23.3773 19.2796 23.403 19.2865 23.429 19.2855H23.424ZM23.435 19.0688C23.4518 19.0678 23.4684 19.0728 23.482 19.0829C23.4875 19.0876 23.4918 19.0935 23.4946 19.1001C23.4974 19.1068 23.4985 19.114 23.498 19.1212C23.4983 19.1274 23.4973 19.1335 23.495 19.1393C23.4928 19.145 23.4894 19.1502 23.485 19.1545C23.4745 19.164 23.4611 19.1697 23.447 19.1706L23.499 19.2311H23.457L23.408 19.1706H23.392V19.2311H23.358V19.0708L23.435 19.0688ZM23.395 19.1001V19.1454H23.435C23.4422 19.1476 23.4498 19.1476 23.457 19.1454C23.4582 19.1429 23.4589 19.1401 23.4589 19.1374C23.4589 19.1346 23.4582 19.1318 23.457 19.1293C23.4582 19.1268 23.4589 19.124 23.4589 19.1212C23.4589 19.1184 23.4582 19.1157 23.457 19.1132C23.4498 19.111 23.4422 19.111 23.435 19.1132L23.395 19.1001ZM21.405 18.3604C21.413 18.2406 21.4618 18.1272 21.543 18.0393C21.6242 17.9515 21.733 17.8944 21.851 17.8778C21.969 17.8612 22.0891 17.886 22.1911 17.9481C22.2931 18.0102 22.3708 18.1058 22.4112 18.2188C22.4515 18.3318 22.452 18.4553 22.4126 18.5687C22.3732 18.682 22.2963 18.7782 22.1949 18.8412C22.0934 18.9041 21.9735 18.93 21.8553 18.9143C21.7372 18.8987 21.6279 18.8426 21.546 18.7554C21.4964 18.7027 21.4583 18.6402 21.4338 18.5719C21.4094 18.5035 21.3992 18.4309 21.404 18.3584L21.405 18.3604ZM8.69998 18.3604V17.4887H8.32398V17.7003C8.26001 17.6175 8.17741 17.5512 8.083 17.5069C7.98858 17.4625 7.88507 17.4415 7.78098 17.4454C7.54109 17.4454 7.31103 17.5414 7.14141 17.7124C6.97178 17.8833 6.87648 18.1151 6.87648 18.3569C6.87648 18.5986 6.97178 18.8304 7.14141 19.0014C7.31103 19.1723 7.54109 19.2684 7.78098 19.2684C7.88507 19.2723 7.98858 19.2512 8.083 19.2069C8.17741 19.1625 8.26001 19.0962 8.32398 19.0134V19.225H8.69998V18.3604ZM7.29998 18.3604C7.30911 18.242 7.35832 18.1304 7.43937 18.0442C7.52042 17.9581 7.62839 17.9026 7.7452 17.887C7.86201 17.8715 7.98057 17.8969 8.08102 17.9589C8.18148 18.0209 8.25773 18.1159 8.29702 18.2278C8.33631 18.3398 8.33624 18.4619 8.29683 18.5738C8.25742 18.6857 8.18106 18.7805 8.08054 18.8425C7.98002 18.9044 7.86143 18.9296 7.74464 18.914C7.62785 18.8983 7.51994 18.8427 7.43898 18.7564C7.39011 18.7036 7.35255 18.6411 7.32864 18.573C7.30472 18.5048 7.29497 18.4325 7.29998 18.3604Z" fill="#231F20"/>
<path d="M16.1292 4.20605H10.4302V14.5261H16.1292V4.20605Z" fill="#FF5F00"/>
<path d="M10.7872 9.36654C10.786 8.37233 11.0094 7.3909 11.4405 6.49661C11.8715 5.60233 12.4989 4.81866 13.2752 4.20501C12.3144 3.44396 11.1605 2.97067 9.94538 2.83924C8.73028 2.70782 7.50299 2.92355 6.4038 3.46178C5.30461 4.00001 4.37787 4.83903 3.72951 5.88294C3.08114 6.92684 2.7373 8.13351 2.7373 9.36503C2.7373 10.5965 3.08114 11.8032 3.72951 12.8471C4.37787 13.891 5.30461 14.73 6.4038 15.2683C7.50299 15.8065 8.73028 16.0222 9.94538 15.8908C11.1605 15.7594 12.3144 15.2861 13.2752 14.525C12.4993 13.9117 11.8722 13.1285 11.4411 12.2348C11.0101 11.3411 10.7864 10.3602 10.7872 9.36654Z" fill="#EB001B"/>
<path d="M23.8173 9.3666C23.8172 10.5981 23.4733 11.8047 22.8249 12.8486C22.1765 13.8924 21.2497 14.7314 20.1505 15.2696C19.0514 15.8077 17.8241 16.0234 16.609 15.892C15.3939 15.7605 14.2401 15.2872 13.2793 14.5261C14.0546 13.912 14.6814 13.1284 15.1125 12.2346C15.5435 11.3407 15.7674 10.3599 15.7674 9.3661C15.7674 8.3723 15.5435 7.39149 15.1125 6.49763C14.6814 5.60377 14.0546 4.82022 13.2793 4.20608C14.2401 3.44502 15.3939 2.97171 16.609 2.84024C17.8241 2.70878 19.0514 2.92446 20.1505 3.46263C21.2497 4.00081 22.1765 4.83977 22.8249 5.88362C23.4733 6.92747 23.8172 8.1341 23.8173 9.36559V9.3666Z" fill="#F79E1B"/>
<path d="M23.1949 13.4327V13.218H23.2799V13.1777H23.0649V13.218H23.1569V13.4297L23.1949 13.4327ZM23.6129 13.4327V13.1777H23.5479L23.4719 13.3601L23.3959 13.1777H23.3379V13.4327H23.3849V13.2412L23.4559 13.4075H23.5049L23.576 13.2412V13.4347L23.6129 13.4327Z" fill="#F79E1B"/>
</svg>
