<svg width="43" height="17" viewBox="0 0 43 17" fill="none" xmlns="http://www.w3.org/2000/svg">
<path d="M32.2002 12.2766H27.6252C27.5911 12.2766 27.5573 12.2698 27.5257 12.2567C27.4942 12.2435 27.4655 12.2242 27.4414 12.1999C27.4172 12.1755 27.3981 12.1467 27.385 12.1149C27.372 12.0831 27.3652 12.049 27.3652 12.0146C27.3652 11.9802 27.372 11.9461 27.385 11.9143C27.3981 11.8826 27.4172 11.8537 27.4414 11.8293C27.4655 11.805 27.4942 11.7857 27.5257 11.7725C27.5573 11.7594 27.5911 11.7526 27.6252 11.7526H32.1752C32.5774 11.6672 32.9385 11.4457 33.1985 11.1249C33.4585 10.8041 33.6016 10.4033 33.6042 9.9891C33.6572 8.57829 32.8552 8.43822 32.7252 8.42512H29.7892C29.3698 8.35505 28.9927 8.12662 28.7345 7.78629C28.4763 7.44597 28.3564 7.01931 28.3992 6.59309C28.4085 6.05379 28.6004 5.53388 28.943 5.1195C29.2857 4.70512 29.7585 4.42115 30.2832 4.31464C30.3013 4.31072 30.3198 4.30869 30.3382 4.30859H34.4572C34.5262 4.30859 34.5923 4.3362 34.6411 4.38534C34.6898 4.43447 34.7172 4.50111 34.7172 4.5706C34.7172 4.64009 34.6898 4.70673 34.6411 4.75587C34.5923 4.805 34.5262 4.83261 34.4572 4.83261H30.3682C29.9651 4.9204 29.6029 5.14222 29.34 5.46242C29.077 5.78262 28.9284 6.18262 28.9182 6.59813C28.9182 6.60418 28.9182 6.61123 28.9182 6.61728C28.8916 6.90927 28.9718 7.20101 29.1439 7.43749C29.3159 7.67398 29.5679 7.83887 29.8522 7.90111H32.7522C32.7672 7.90111 34.2012 8.01095 34.1252 10.0082C34.119 10.5463 33.9285 11.0656 33.5859 11.4782C33.2433 11.8909 32.7697 12.1715 32.2452 12.2726C32.2304 12.2753 32.2153 12.2767 32.2002 12.2766Z" fill="#004F9B"/>
<path d="M40.8224 12.3049H36.6004H36.5724C36.0154 12.2444 34.9563 11.8544 34.9333 10.8064C35.076 9.24405 35.3257 7.69352 35.6804 6.16584C35.6829 6.1542 35.6862 6.14276 35.6904 6.13158C35.7164 6.06104 36.3363 4.41846 37.7113 4.41846H40.7484C40.7727 4.4184 40.7969 4.4218 40.8204 4.42854C40.8734 4.44365 42.1203 4.81953 42.1203 5.8998C42.0834 6.74105 41.9916 7.57894 41.8454 8.40802C41.8348 8.46836 41.8037 8.52308 41.7572 8.56266C41.7108 8.60224 41.6521 8.62419 41.5914 8.62467L35.7153 8.67406C35.5745 9.37165 35.4872 10.0791 35.4543 10.7903C35.4723 11.5964 36.4854 11.7607 36.6174 11.7778H40.8233C40.8923 11.7778 40.9584 11.8054 41.0072 11.8546C41.056 11.9037 41.0834 11.9703 41.0834 12.0398C41.0834 12.1093 41.056 12.176 41.0072 12.2251C40.9584 12.2742 40.8923 12.3018 40.8233 12.3018L40.8224 12.3049ZM36.1833 6.29685C36.1543 6.43088 35.9833 7.23503 35.8103 8.14702L41.3674 8.10067C41.4919 7.37221 41.5694 6.63636 41.5993 5.89779C41.5993 5.2851 40.8694 4.99689 40.7074 4.94046H37.7074C36.7524 4.94046 36.2423 6.14771 36.1833 6.29685Z" fill="#004F9B"/>
<path d="M19.7032 15.74C19.6875 15.7414 19.6718 15.7414 19.6562 15.74C19.5889 15.7274 19.5292 15.6887 19.49 15.6321C19.4509 15.5755 19.4355 15.5056 19.4472 15.4376C19.4472 15.4376 19.8612 13.132 20.2782 10.8253C20.4862 9.67249 20.6952 8.51865 20.8542 7.65403C20.9332 7.22071 21.0002 6.85995 21.0472 6.60802C21.0706 6.46096 21.102 6.3153 21.1412 6.17168C21.3053 5.75344 21.559 5.37684 21.8841 5.06871C22.2093 4.76058 22.5978 4.5285 23.0222 4.38902C23.0457 4.38595 23.0696 4.38595 23.0932 4.38902C23.2652 4.39507 24.9122 4.38902 25.9992 4.38902C26.2512 4.38297 27.5992 4.89288 27.4412 5.97114C27.4412 5.98021 27.4412 5.99028 27.4412 5.99935L26.7162 10.4575C26.7162 10.4676 26.7162 10.4766 26.7102 10.4857C26.589 10.8892 26.3753 11.2583 26.0864 11.5633C25.7975 11.8682 25.4415 12.1004 25.0472 12.2412C25.0254 12.2479 25.0029 12.2516 24.9802 12.2522L22.3102 12.3288C22.2995 12.3299 22.2888 12.3299 22.2782 12.3288C21.6538 12.2257 21.0933 11.883 20.7142 11.3725C20.4262 12.9647 20.1392 14.5609 19.9642 15.5354C19.951 15.5947 19.9177 15.6475 19.8701 15.6849C19.8225 15.7222 19.7635 15.7417 19.7032 15.74ZM20.8432 10.6127C20.9782 10.9119 21.1811 11.1748 21.4356 11.3803C21.6901 11.5859 21.989 11.7282 22.3082 11.7958L24.9232 11.7202C25.224 11.601 25.4946 11.4158 25.7155 11.1781C25.9364 10.9403 26.102 10.6559 26.2002 10.3456L26.9192 5.92076C26.9942 5.42798 26.2442 4.89994 25.9362 4.90195H24.5292H23.5192C23.3302 4.90195 23.1942 4.90196 23.0952 4.8949C22.7675 5.02283 22.4688 5.21602 22.2169 5.46293C21.965 5.70983 21.7651 6.00538 21.6292 6.3319C21.5822 6.54251 21.2282 8.48338 20.8432 10.6127Z" fill="#004F9B"/>
<path d="M16.1912 3.27454C16.1912 3.41904 16.1487 3.5603 16.069 3.68044C15.9894 3.80059 15.8761 3.89423 15.7437 3.94952C15.6112 4.00482 15.4654 4.01929 15.3248 3.9911C15.1841 3.96291 15.0549 3.89333 14.9536 3.79115C14.8522 3.68898 14.7831 3.55879 14.7551 3.41707C14.7272 3.27535 14.7415 3.12845 14.7964 2.99495C14.8513 2.86146 14.9442 2.74735 15.0634 2.66707C15.1826 2.58679 15.3228 2.54395 15.4662 2.54395C15.6585 2.54395 15.8429 2.62092 15.9789 2.75793C16.1148 2.89495 16.1912 3.08077 16.1912 3.27454Z" fill="#FFA600"/>
<path d="M13.8261 1.52418C14.2265 1.52418 14.5511 1.19708 14.5511 0.793584C14.5511 0.390087 14.2265 0.0629883 13.8261 0.0629883C13.4257 0.0629883 13.1011 0.390087 13.1011 0.793584C13.1011 1.19708 13.4257 1.52418 13.8261 1.52418Z" fill="#FFA600"/>
<path d="M12.9031 3.27454C12.9031 3.41904 12.8606 3.5603 12.7809 3.68044C12.7013 3.80059 12.588 3.89423 12.4556 3.94952C12.3231 4.00482 12.1773 4.01929 12.0367 3.9911C11.8961 3.96291 11.7669 3.89333 11.6655 3.79115C11.5641 3.68898 11.495 3.55879 11.4671 3.41707C11.4391 3.27535 11.4534 3.12845 11.5083 2.99495C11.5632 2.86146 11.6561 2.74735 11.7753 2.66707C11.8946 2.58679 12.0347 2.54395 12.1781 2.54395C12.3704 2.54395 12.5548 2.62092 12.6908 2.75793C12.8267 2.89495 12.9031 3.08077 12.9031 3.27454Z" fill="#FFA600"/>
<path d="M15.3842 13.9524C15.7846 13.9524 16.1092 13.6253 16.1092 13.2218C16.1092 12.8183 15.7846 12.4912 15.3842 12.4912C14.9838 12.4912 14.6592 12.8183 14.6592 13.2218C14.6592 13.6253 14.9838 13.9524 15.3842 13.9524Z" fill="#FFA600"/>
<path d="M13.8231 11.6206C14.2236 11.6206 14.5481 11.2935 14.5481 10.89C14.5481 10.4865 14.2236 10.1594 13.8231 10.1594C13.4227 10.1594 13.0981 10.4865 13.0981 10.89C13.0981 11.2935 13.4227 11.6206 13.8231 11.6206Z" fill="#FFA600"/>
<path d="M10.6244 11.4936C10.9552 11.4936 11.2234 11.2234 11.2234 10.89C11.2234 10.5566 10.9552 10.2864 10.6244 10.2864C10.2936 10.2864 10.0254 10.5566 10.0254 10.89C10.0254 11.2234 10.2936 11.4936 10.6244 11.4936Z" fill="#FFA600"/>
<path d="M12.824 13.2228C12.824 13.3424 12.7888 13.4593 12.7229 13.5587C12.657 13.6581 12.5633 13.7356 12.4536 13.7814C12.344 13.8272 12.2234 13.8391 12.107 13.8158C11.9906 13.7925 11.8837 13.7349 11.7998 13.6503C11.7158 13.5658 11.6587 13.458 11.6356 13.3407C11.6124 13.2235 11.6243 13.1019 11.6697 12.9914C11.7151 12.8809 11.792 12.7865 11.8907 12.72C11.9893 12.6536 12.1054 12.6182 12.224 12.6182C12.3832 12.6182 12.5358 12.6819 12.6483 12.7953C12.7608 12.9086 12.824 13.0624 12.824 13.2228Z" fill="#FFA600"/>
<path d="M10.5824 16.3821C10.9132 16.3821 11.1814 16.1118 11.1814 15.7784C11.1814 15.4451 10.9132 15.1748 10.5824 15.1748C10.2516 15.1748 9.9834 15.4451 9.9834 15.7784C9.9834 16.1118 10.2516 16.3821 10.5824 16.3821Z" fill="#FFA600"/>
<path d="M9.03141 13.6913C9.28822 13.6913 9.49641 13.4815 9.49641 13.2227C9.49641 12.9639 9.28822 12.7542 9.03141 12.7542C8.77459 12.7542 8.56641 12.9639 8.56641 13.2227C8.56641 13.4815 8.77459 13.6913 9.03141 13.6913Z" fill="#FFA600"/>
<path d="M3.31949 8.79582C3.5763 8.79582 3.78449 8.58603 3.78449 8.32723C3.78449 8.06844 3.5763 7.85864 3.31949 7.85864C3.06268 7.85864 2.85449 8.06844 2.85449 8.32723C2.85449 8.58603 3.06268 8.79582 3.31949 8.79582Z" fill="#FFA600"/>
<path d="M4.15104 6.30168C4.40785 6.30168 4.61604 6.09189 4.61604 5.83309C4.61604 5.5743 4.40785 5.3645 4.15104 5.3645C3.89422 5.3645 3.68604 5.5743 3.68604 5.83309C3.68604 6.09189 3.89422 6.30168 4.15104 6.30168Z" fill="#FFA600"/>
<path d="M6.19026 3.27255C6.19026 3.36527 6.16296 3.4559 6.11182 3.53298C6.06068 3.61006 5.988 3.67012 5.90297 3.70556C5.81794 3.741 5.7244 3.75022 5.63417 3.73205C5.54394 3.71389 5.46109 3.66916 5.3961 3.60353C5.33111 3.5379 5.2869 3.45431 5.26907 3.36335C5.25124 3.27238 5.26059 3.17813 5.29594 3.09253C5.33129 3.00692 5.39104 2.93381 5.46764 2.88244C5.54424 2.83107 5.63424 2.80376 5.72625 2.80396C5.78727 2.80396 5.84769 2.81608 5.90405 2.83965C5.96041 2.86321 6.01161 2.89774 6.05471 2.94126C6.09781 2.98479 6.13196 3.03646 6.15522 3.0933C6.17848 3.15015 6.19039 3.21106 6.19026 3.27255Z" fill="#FFA600"/>
<path d="M7.78644 0.84795C7.78664 0.940714 7.75951 1.03145 7.70849 1.10867C7.65748 1.18588 7.58486 1.24609 7.49985 1.28168C7.41485 1.31728 7.32127 1.32664 7.23097 1.30859C7.14068 1.29054 7.05773 1.24589 6.99264 1.1803C6.92755 1.1147 6.88324 1.03112 6.86533 0.940132C6.84742 0.849141 6.85671 0.754839 6.89203 0.669175C6.92735 0.58351 6.98711 0.510336 7.06373 0.458923C7.14035 0.407511 7.23039 0.380173 7.32244 0.380372C7.4455 0.380372 7.56353 0.429635 7.65054 0.517323C7.73756 0.605012 7.78644 0.72394 7.78644 0.84795Z" fill="#FFA600"/>
<path d="M7.36734 16.248C7.62416 16.248 7.83234 16.0382 7.83234 15.7794C7.83234 15.5206 7.62416 15.3108 7.36734 15.3108C7.11053 15.3108 6.90234 15.5206 6.90234 15.7794C6.90234 16.0382 7.11053 16.248 7.36734 16.248Z" fill="#FFA600"/>
<path d="M5.77115 13.6913C6.02796 13.6913 6.23615 13.4815 6.23615 13.2227C6.23615 12.9639 6.02796 12.7542 5.77115 12.7542C5.51434 12.7542 5.30615 12.9639 5.30615 13.2227C5.30615 13.4815 5.51434 13.6913 5.77115 13.6913Z" fill="#FFA600"/>
<path d="M4.12906 11.3586C4.38587 11.3586 4.59406 11.1488 4.59406 10.89C4.59406 10.6312 4.38587 10.4214 4.12906 10.4214C3.87225 10.4214 3.66406 10.6312 3.66406 10.89C3.66406 11.1488 3.87225 11.3586 4.12906 11.3586Z" fill="#FFA600"/>
<path d="M3.25221 13.4647C3.38476 13.4647 3.49221 13.3564 3.49221 13.2228C3.49221 13.0892 3.38476 12.981 3.25221 12.981C3.11966 12.981 3.01221 13.0892 3.01221 13.2228C3.01221 13.3564 3.11966 13.4647 3.25221 13.4647Z" fill="#FFA600"/>
<path d="M1.75611 11.1317C1.88866 11.1317 1.99611 11.0234 1.99611 10.8898C1.99611 10.7562 1.88866 10.6479 1.75611 10.6479C1.62356 10.6479 1.51611 10.7562 1.51611 10.8898C1.51611 11.0234 1.62356 11.1317 1.75611 11.1317Z" fill="#FFA600"/>
<path d="M1.07326 8.28385C1.07326 8.33168 1.05919 8.37844 1.03281 8.41821C1.00644 8.45798 0.96896 8.48898 0.925106 8.50729C0.881252 8.52559 0.832995 8.5304 0.78644 8.52106C0.739884 8.51173 0.697122 8.48869 0.663557 8.45487C0.629992 8.42104 0.607134 8.37796 0.597874 8.33104C0.588613 8.28413 0.593365 8.23549 0.61153 8.1913C0.629695 8.14711 0.660457 8.10933 0.699924 8.08276C0.739392 8.05618 0.785794 8.04199 0.833261 8.04199C0.896913 8.04199 0.957959 8.06748 1.00297 8.11283C1.04798 8.15819 1.07326 8.21971 1.07326 8.28385Z" fill="#FFA600"/>
<path d="M1.68922 6.07916C1.82177 6.07916 1.92922 5.97088 1.92922 5.83731C1.92922 5.70374 1.82177 5.59546 1.68922 5.59546C1.55667 5.59546 1.44922 5.70374 1.44922 5.83731C1.44922 5.97088 1.55667 6.07916 1.68922 6.07916Z" fill="#FFA600"/>
<path d="M3.30836 3.54059C3.44091 3.54059 3.54836 3.43231 3.54836 3.29874C3.54836 3.16517 3.44091 3.05688 3.30836 3.05688C3.17581 3.05688 3.06836 3.16517 3.06836 3.29874C3.06836 3.43231 3.17581 3.54059 3.30836 3.54059Z" fill="#FFA600"/>
<path d="M7.34412 11.4936C7.67494 11.4936 7.94312 11.2234 7.94312 10.89C7.94312 10.5566 7.67494 10.2864 7.34412 10.2864C7.0133 10.2864 6.74512 10.5566 6.74512 10.89C6.74512 11.2234 7.0133 11.4936 7.34412 11.4936Z" fill="#FFA600"/>
<path d="M5.65711 8.93601C5.98792 8.93601 6.25611 8.66575 6.25611 8.33238C6.25611 7.99901 5.98792 7.72876 5.65711 7.72876C5.32629 7.72876 5.05811 7.99901 5.05811 8.33238C5.05811 8.66575 5.32629 8.93601 5.65711 8.93601Z" fill="#FFA600"/>
<path d="M7.92119 5.83314C7.92119 5.95273 7.886 6.06963 7.82007 6.16906C7.75414 6.26849 7.66044 6.34599 7.5508 6.39175C7.44117 6.43751 7.32053 6.44949 7.20414 6.42616C7.08775 6.40283 6.98084 6.34525 6.89693 6.26069C6.81302 6.17613 6.75587 6.06839 6.73272 5.95111C6.70957 5.83382 6.72145 5.71225 6.76687 5.60177C6.81228 5.49128 6.88918 5.39685 6.98785 5.33042C7.08652 5.26398 7.20252 5.22852 7.32119 5.22852C7.48032 5.22852 7.63294 5.29222 7.74546 5.40561C7.85798 5.519 7.92119 5.67279 7.92119 5.83314Z" fill="#FFA600"/>
<path d="M8.98523 3.87717C9.31605 3.87717 9.58423 3.60692 9.58423 3.27354C9.58423 2.94017 9.31605 2.66992 8.98523 2.66992C8.65441 2.66992 8.38623 2.94017 8.38623 3.27354C8.38623 3.60692 8.65441 3.87717 8.98523 3.87717Z" fill="#FFA600"/>
<path d="M10.5604 1.4072C10.8912 1.4072 11.1594 1.13695 11.1594 0.803574C11.1594 0.470202 10.8912 0.199951 10.5604 0.199951C10.2296 0.199951 9.96143 0.470202 9.96143 0.803574C9.96143 1.13695 10.2296 1.4072 10.5604 1.4072Z" fill="#FFA600"/>
<path d="M8.94424 9.06397C9.34464 9.06397 9.66924 8.73688 9.66924 8.33338C9.66924 7.92988 9.34464 7.60278 8.94424 7.60278C8.54383 7.60278 8.21924 7.92988 8.21924 8.33338C8.21924 8.73688 8.54383 9.06397 8.94424 9.06397Z" fill="#FFA600"/>
<path d="M10.5614 6.56275C10.9618 6.56275 11.2864 6.23565 11.2864 5.83216C11.2864 5.42866 10.9618 5.10156 10.5614 5.10156C10.161 5.10156 9.83643 5.42866 9.83643 5.83216C9.83643 6.23565 10.161 6.56275 10.5614 6.56275Z" fill="#FFA600"/>
<path d="M13.8231 16.51C14.2236 16.51 14.5481 16.1829 14.5481 15.7794C14.5481 15.3759 14.2236 15.0488 13.8231 15.0488C13.4227 15.0488 13.0981 15.3759 13.0981 15.7794C13.0981 16.1829 13.4227 16.51 13.8231 16.51Z" fill="#FFA600"/>
<path d="M20.0395 8.07544H9.3125V8.52387H20.0395V8.07544Z" fill="#FFA600"/>
<path d="M14.4702 5.6084H11.0972V6.05683H14.4702V5.6084Z" fill="#FFA600"/>
<path d="M15.9195 8.49753L14.0635 5.6084H14.5815L16.4385 8.49753H15.9195Z" fill="#FFA600"/>
<path d="M16.1092 10.6663H14.3882V11.1147H16.1092V10.6663Z" fill="#FFA600"/>
<path d="M15.6992 11.1137L17.2392 8.49365H17.6842L16.1442 11.1137H15.6992Z" fill="#FFA600"/>
</svg>
