<svg width="26" height="8" viewBox="0 0 26 8" fill="none" xmlns="http://www.w3.org/2000/svg">
<path d="M23.194 2.14156H22.904C22.4654 3.0727 22.1403 4.05398 21.936 5.06394H23.775C23.6485 4.07748 23.4543 3.10102 23.194 2.14156ZM26.001 7.89563H24.355C24.255 7.89563 24.255 7.89563 24.161 7.79486L23.967 6.91713L23.867 6.72164H21.545C21.445 6.72164 21.351 6.72164 21.351 6.91713L21.061 7.79486C21.061 7.82158 21.0505 7.84721 21.0317 7.86611C21.013 7.88501 20.9875 7.89563 20.961 7.89563H18.936L19.13 7.40789L21.937 0.776103C21.937 0.288368 22.227 0.093878 22.711 0.093878H24.163C24.263 0.093878 24.357 0.0938783 24.357 0.289376L25.712 6.62792C25.8233 6.97549 25.8885 7.33635 25.906 7.70114C26.006 7.80191 26.006 7.80191 26.006 7.89664L26.001 7.89563ZM13.033 7.60339L13.42 5.84795C13.494 5.85899 13.5622 5.89443 13.614 5.94872C14.2429 6.26329 14.9456 6.39717 15.645 6.33568C15.8816 6.31636 16.1121 6.24991 16.323 6.14018C16.807 5.94469 16.807 5.45796 16.423 5.06697C16.1778 4.88282 15.9176 4.71999 15.645 4.58024C15.2564 4.41105 14.897 4.18078 14.58 3.89801C14.3575 3.71835 14.1762 3.49231 14.0485 3.2354C13.9208 2.97849 13.8498 2.69678 13.8403 2.40961C13.8308 2.12243 13.883 1.83658 13.9935 1.57167C14.1039 1.30676 14.2699 1.06905 14.48 0.874859C15.065 0.483864 15.355 0.093878 16.129 0.093878C17.1332 0.0405445 18.1401 0.106159 19.129 0.289376H19.229C19.1461 0.851843 19.0166 1.40634 18.842 1.94707C18.3864 1.72707 17.8939 1.59481 17.39 1.55708C17.0962 1.54225 16.8019 1.5763 16.519 1.65786C16.4441 1.65914 16.3704 1.67737 16.3034 1.71121C16.2365 1.74505 16.1779 1.79363 16.132 1.85335C16.0862 1.89739 16.0498 1.95032 16.0249 2.00895C16 2.06759 15.9872 2.13069 15.9872 2.19447C15.9872 2.25824 16 2.32135 16.0249 2.37998C16.0498 2.43861 16.0862 2.49154 16.132 2.53558L16.616 2.92557C16.9819 3.09999 17.3375 3.29547 17.681 3.51105C17.9423 3.65129 18.1718 3.84473 18.355 4.07909C18.5381 4.31346 18.671 4.58363 18.745 4.87248C18.8465 5.29125 18.8173 5.73138 18.6614 6.13282C18.5055 6.53426 18.2306 6.87748 17.874 7.11566C17.7037 7.30634 17.4944 7.45745 17.2604 7.55854C17.0264 7.65964 16.7735 7.70829 16.519 7.70114C15.4188 7.79817 14.3103 7.73231 13.229 7.50564C13.129 7.70114 13.129 7.70114 13.035 7.60641L13.033 7.60339ZM9.64502 7.89563C9.66882 7.56356 9.734 7.23583 9.83902 6.92016C10.323 4.77473 10.807 2.53155 11.194 0.386116C11.294 0.190619 11.294 0.093878 11.484 0.093878H13.226C13.0569 1.14682 12.8309 2.18968 12.549 3.2178C12.259 4.68101 11.968 6.14018 11.581 7.60641C11.581 7.80191 11.481 7.80191 11.291 7.80191L9.64502 7.89563ZM0.64502 0.289376C0.64502 0.19465 0.839019 0.093878 0.935019 0.093878H4.22502C4.4527 0.0838969 4.67625 0.157429 4.85424 0.300846C5.03223 0.444264 5.15259 0.647842 5.19302 0.873852L6.06402 5.16471C6.06402 5.26548 6.06402 5.26549 6.16402 5.36021C6.16402 5.33348 6.17456 5.30785 6.19331 5.28895C6.21206 5.27006 6.2375 5.25944 6.26402 5.25944L8.29602 0.285344C8.19602 0.184572 8.29602 0.089847 8.39602 0.089847H10.428C10.428 0.190619 10.428 0.190619 10.328 0.285344L7.32802 7.40487C7.22802 7.60037 7.22802 7.69711 7.13402 7.79486C7.04002 7.89261 6.84402 7.79486 6.65002 7.79486H5.19402C5.09402 7.79486 5.00002 7.79486 5.00002 7.59936L3.45202 1.55305C3.21947 1.28222 2.91849 1.0799 2.58102 0.967569C1.99607 0.715882 1.37736 0.552879 0.745019 0.483865L0.64502 0.289376Z" fill="#142688"/>
</svg>
